<?xml version="1.0" encoding="UTF-8"?>
<svg id="_Слой_2" data-name="Слой 2" xmlns="http://www.w3.org/2000/svg" viewBox="0 0 175.24 350.09">
  <defs>
    <style>
      .cls-1 {
        fill: #fff;
      }

      .cls-2 {
        fill: #d2ded2;
      }
    </style>
  </defs>
  <g id="Layer_1" data-name="Layer 1">
    <g>
      <path class="cls-2" d="M159.05,274.66c1.7,.2,3.3,1.07,4.63,2.23,1.18,1.03,2.25,2.65,.99,3.79-2.58,2.34-.59,3.6,.71,5.16,1.56,1.89,3.06,3.69,1.2,6.36-1.45,2.07,.53,3.31,1.83,4.14,2.91,1.87,3.5,4.51,3.28,7.6-.15,1.99-.38,3.97-.56,5.96-.52,5.69-1.19,11.28,2.4,16.53,2.16,3.16,1.96,7.15,1.24,10.87-.33,1.73-.36,4.25-2.68,4.38-2.52,.14-2.52-2.51-2.77-4.16-.55-3.68-.88-7.41-.93-11.13-.04-3.08-1.15-5.31-3.59-7.12-3.39-2.51-6.66-5.17-10.36-8.07,.19,.87,.16,1.3,.35,1.56,7.73,10.32,7.92,22.6,8.94,34.64,.08,.96,.61,2.51-.84,2.67-1.69,.18-1.51-1.56-1.64-2.64-.78-6.47-.95-13-2.19-19.43-.77-4.02-2.39-7.57-4.56-10.96-2.94-4.6-5.81-9.24-7.98-14.27-1.76-4.07-2.27-8.21-.57-12.41,.7-1.73,.44-3.36,.02-5.07-.69-2.82-.11-5.52,2.17-7.25l.58-1.66c3.49-.41,1.86-3.4,.53-5.9-2.38-4.47-4.44-9.13-5.61-14.06-3.66-15.45-9.13-30.31-14.38-45.25-10.23-29.12-21.07-58.06-28.37-88.12-.68-2.8-1.37-5.61-2.23-9.15-2.56,3.29-4.56,6.09-7.1,8.4-1.46,1.33-3.06,2.72-3.98,4.41-1.23,2.27,1.25,3.47,2.21,5.1,.35,.59,.72,1.21,.16,1.79-.59,.61-1.21,.19-1.79-.17-3.65-2.27-4.24-6.74-1.24-9.96,2.17-2.34,4.57-4.48,6.63-6.91,.99-1.17,3.09-2.31,1.75-4.35-1.18-1.81-2.3-3.39-5.21-3.39-9.57-.01-19.18,.07-28.71-1.08-12.96-1.56-25.89-3.33-37.9-8.95-12.39-5.8-20.5-15.07-22.91-28.74-2.92-16.54,6.29-28.54,22.8-29.85,2.77-.22,5.61-.05,8.36,.31,2.98,.39,3.71-.23,2.84-3.33-3.22-11.43,.06-21.02,8.94-28.7C59.75-5.59,86.07-1.67,97.08,16.76c8.87,14.85,10.96,30.94,6.61,47.72-2.85,10.98-5.24,21.96-4.46,33.46,.32,4.72,.34,8.87,6.59,9.51,2.2,.22,3.4,2.48,3.05,4.93-.32,2.27-2,3.23-4,3.09-3.81-.28-2.94,1.99-2.44,4.07,2.74,11.53,5.99,22.92,9.57,34.21,8.1,25.5,17.6,50.52,26.22,75.85,2.96,8.7,5.29,17.58,7.9,26.38,2.44,8.2,2.79,11.7,10.21,17.34l2.7,1.35Zm2.52,10.88c-5.12-2.88-8.05,1.59-11.21,3.88-2.93,2.13-2.49,6.12-1.21,9.23,3.69,8.97,11.03,14.52,19.07,19.87,.31-5.81,.68-11.1,.85-16.4,.07-2.11-.62-3.55-3.05-1.69-1.04,.79-2.45,1.76-3.6,.62-1.32-1.31,.12-2.38,.96-3.35,.64-.74,1.33-1.47,.56-2.42-1.01-1.25-1.89-.24-2.72,.35-1.4,1.01-2.73,2.11-4.15,3.08-.55,.38-1.34,.47-1.81-.15-.47-.62-.17-1.32,.36-1.77,1.52-1.29,3.11-2.49,4.65-3.76,.6-.49,1.47-1.06,1-1.93-.59-1.11-1.71-.66-2.44-.19-1.78,1.15-3.43,2.51-5.19,3.7-.75,.51-1.69,1.11-2.53,.25-.84-.87-.34-1.81,.39-2.44,3.06-2.67,5.7-6.01,10.07-6.88Z"/>
      <path class="cls-1" d="M94.11,106.42c1.66,0,3.73,.44,3.26-2.51-2.3-14.56,1.36-28.42,4.42-42.5,3.81-17.53,1.41-34.41-10.69-48.45C77.49-2.81,49.87-.36,39.26,17.09c-4.44,7.3-4.09,14.9-1.41,22.67,.7,2.02,2.41,2.7,4.05,3.56,4.16,2.19,7.27,5.33,8.74,9.89,.51,1.6,.67,3.23-1,4.28-1.53,.96-2.85,.06-3.98-.87-3.15-2.58-5.26-6-7.08-9.55-1.21-2.36-2.89-3.62-5.46-4.07-7.02-1.24-13.86-.69-20.19,2.62-8.54,4.46-11.13,12.27-10.38,21.2,.94,11.27,6.41,20.14,15.85,26.41,8.61,5.72,18.43,8.07,28.4,10.01,7.33,1.43,14.76,1.89,24.73,2.62,5.82,.59,14.2,.55,22.58,.56Z"/>
    </g>
  </g>
</svg>