<?xml version="1.0" encoding="UTF-8"?>
<svg id="_Слой_2" data-name="Слой 2" xmlns="http://www.w3.org/2000/svg" viewBox="0 0 175.24 350.09">
  <defs>
    <style>
      .cls-1 {
        fill: #fff;
      }

      .cls-2 {
        fill: #d2ded2;
      }
    </style>
  </defs>
  <g id="Layer_1" data-name="Layer 1">
    <g>
      <path class="cls-1" d="M18.9,273.32c7.42-5.65,7.77-9.14,10.21-17.34,2.62-8.8,4.94-17.68,7.9-26.38,8.62-25.32,18.12-50.34,26.22-75.85,3.59-11.29,6.83-22.68,9.57-34.21,.49-2.08,1.37-4.35-2.44-4.07-2,.15-3.68-.81-4-3.09-.34-2.46,.86-4.71,3.05-4.93,6.25-.64,6.27-4.79,6.59-9.51,.78-11.49-1.61-22.47-4.46-33.46-4.36-16.78-2.26-32.87,6.61-47.72C89.17-1.67,115.48-5.59,131.76,8.47c8.89,7.68,12.16,17.28,8.94,28.7-.87,3.1-.14,3.72,2.84,3.33,2.76-.36,5.6-.53,8.36-.31,16.51,1.31,25.72,13.31,22.8,29.85-2.41,13.67-10.52,22.94-22.91,28.74-12.01,5.63-24.94,7.39-37.9,8.95-9.53,1.15-19.14,1.07-28.71,1.08-2.9,0-4.02,1.59-5.21,3.39-1.34,2.04,.76,3.18,1.75,4.35,2.06,2.43,4.45,4.57,6.63,6.91,3,3.22,2.41,7.69-1.24,9.96-.57,.36-1.2,.78-1.79,.17-.56-.58-.19-1.2,.16-1.79,.95-1.63,3.44-2.83,2.21-5.1-.92-1.69-2.51-3.08-3.98-4.41-2.54-2.32-4.54-5.12-7.1-8.4-.87,3.54-1.55,6.35-2.23,9.15-7.3,30.07-18.13,59-28.37,88.12-5.25,14.94-10.72,29.8-14.38,45.25-1.17,4.93-3.23,9.6-5.61,14.06-1.33,2.5-2.96,5.49,.53,5.9l.58,1.66c2.28,1.73,2.86,4.44,2.17,7.25-.42,1.71-.68,3.34,.02,5.07,1.69,4.2,1.19,8.34-.57,12.41-2.18,5.03-5.05,9.67-7.98,14.27-2.17,3.4-3.79,6.95-4.56,10.96-1.23,6.43-1.4,12.96-2.19,19.43-.13,1.08,.06,2.82-1.64,2.64-1.45-.16-.92-1.71-.84-2.67,1.02-12.05,1.2-24.32,8.94-34.64,.2-.26,.17-.69,.35-1.56-3.7,2.9-6.97,5.56-10.36,8.07-2.44,1.81-3.55,4.04-3.59,7.12-.05,3.72-.38,7.45-.93,11.13-.25,1.66-.25,4.3-2.77,4.16-2.32-.13-2.35-2.65-2.68-4.38-.72-3.73-.92-7.71,1.24-10.87,3.59-5.26,2.92-10.84,2.4-16.53-.18-1.99-.42-3.97-.56-5.96-.22-3.08,.36-5.73,3.28-7.6,1.29-.83,3.27-2.07,1.83-4.14-1.86-2.67-.37-4.47,1.2-6.36,1.29-1.56,3.29-2.82,.71-5.16-1.26-1.14-.18-2.76,.99-3.79,1.33-1.16,2.93-2.03,4.63-2.23l2.7-1.35Zm4.85,19.12c.72,.63,1.22,1.58,.39,2.44-.84,.86-1.78,.26-2.53-.25-1.76-1.19-3.41-2.55-5.19-3.7-.73-.47-1.84-.92-2.44,.19-.47,.87,.4,1.44,1,1.93,1.53,1.27,3.12,2.48,4.65,3.76,.53,.44,.83,1.14,.36,1.77-.47,.63-1.26,.53-1.81,.15-1.42-.97-2.75-2.08-4.15-3.08-.82-.59-1.7-1.6-2.72-.35-.77,.95-.08,1.69,.56,2.42,.84,.97,2.28,2.04,.96,3.35-1.15,1.13-2.56,.17-3.6-.62-2.43-1.86-3.12-.42-3.05,1.69,.17,5.3,.53,10.59,.85,16.4,8.05-5.35,15.38-10.9,19.07-19.87,1.28-3.11,1.72-7.1-1.21-9.23-3.16-2.3-6.09-6.77-11.21-3.88,4.38,.88,7.02,4.22,10.07,6.88Z"/>
      <path class="cls-2" d="M103.7,105.86c9.96-.73,17.39-1.19,24.73-2.62,9.97-1.94,19.79-4.29,28.4-10.01,9.45-6.28,14.91-15.14,15.85-26.41,.75-8.94-1.85-16.74-10.38-21.2-6.33-3.31-13.17-3.86-20.19-2.62-2.57,.46-4.25,1.71-5.46,4.07-1.82,3.55-3.93,6.97-7.08,9.55-1.13,.93-2.45,1.83-3.98,.87-1.66-1.05-1.51-2.68-1-4.28,1.47-4.56,4.59-7.7,8.74-9.89,1.64-.87,3.35-1.54,4.05-3.56,2.68-7.77,3.03-15.36-1.41-22.67C125.37-.36,97.75-2.81,84.14,12.97c-12.11,14.04-14.5,30.92-10.69,48.45,3.06,14.08,6.72,27.93,4.42,42.5-.47,2.95,1.6,2.51,3.26,2.51,8.38,0,16.76,.03,22.58-.56Z"/>
    </g>
  </g>
</svg>