<?xml version="1.0" encoding="utf-8"?>
<!-- Generator: Adobe Illustrator 26.0.1, SVG Export Plug-In . SVG Version: 6.00 Build 0)  -->
<svg version="1.1" id="Layer_1" xmlns="http://www.w3.org/2000/svg" xmlns:xlink="http://www.w3.org/1999/xlink" x="0px" y="0px"
	 viewBox="0 0 332.9 170.6" style="enable-background:new 0 0 332.9 170.6;" xml:space="preserve">
<style type="text/css">
	.st0{fill:#4A494A;}
</style>
<g>
	<g>
		<path class="st0" d="M107.7,78.8c1.2-0.8,1.8-1,1.9-0.5l-0.2,0.5c-4.4,3.6-14.7,7.8-31,12.7l-3.5,1c-6.2,4.5-11.8,7.6-16.6,9.3
			c-4.8,1.7-10.3,2.4-16.6,2.2c-8.7-0.2-13.9-0.2-15.8,0c-0.8,0.2-1.8,0.9-2.9,1.9c-3.8,2.8-6.1,4.2-6.9,4.3
			c-0.3,0.1-0.8,0.1-1.2-0.2c-1.3-0.8-0.7-2.1,1.7-3.8c1.3-0.9,2.8-1.7,4.5-2.3c1.8-0.7,3.4-1.6,4.5-2.6
			c6.1-5.1,11.4-10.2,15.8-15.4l1-1c-11.2-10.8-13.6-22.9-7.1-36.6c3.6-7.3,9.3-14,17.3-20.2c7.9-6.2,15.7-10,23.3-11.4
			c9.1-1.8,16.5,0.4,22,6.7c5.5,6.3,7.3,14.3,5.2,24C99.8,65.1,91.1,79.5,77,90.7c0.3,0,1.8-0.4,4.3-1.2c4.4-1.2,9.4-2.8,14.9-5
			C101.8,82.3,105.6,80.4,107.7,78.8z M19.8,106.2l-0.9,0.2l-1,0.7l-1.7,1.4c0,0.1,0.3,0,0.9-0.3c0.6-0.3,1.2-0.7,1.7-1.1
			C19.3,106.5,19.6,106.3,19.8,106.2z M62.9,98.5c0.5-0.2,1-0.5,1.5-0.8c0.5-0.3,1.1-0.6,1.6-1c0.6-0.3,1.2-0.7,1.7-1
			c0.6-0.3,1.1-0.7,1.6-1c0.5-0.3,1-0.7,1.4-1c0.4-0.3,0.7-0.5,0.8-0.8l0.3-0.2L69.7,93c-8.4,1.3-16.8-0.8-25-6.2
			c-0.1-0.2-1.1,0.6-2.9,2.4c-3.2,3.6-6.8,7-10.8,10.2l-3.5,2.8c-0.1,0.1,0,0.2,0.3,0.3c0.7,0.1,2.4,0.2,5.2,0.2
			c11.1,0,18.3-0.4,21.7-1.2C57.2,100.9,59.9,99.9,62.9,98.5z M73.9,91.4c1.2-0.5,4-2.9,8.5-7.5c9.1-9.1,15.5-20.3,19.1-33.6
			c2.9-11.9,1.3-20.9-4.9-27.1c-4.9-5.2-12.1-6.8-21.9-4.9c-5.2,1.4-10.6,4-16.3,7.8c-8.1,5.3-14.3,11.3-18.7,18
			c-4.4,6.7-6.4,13.6-6,20.5c0.4,7,3.6,13.3,9.5,18.8c0.1,0.1,2.2-2.6,6.3-8.2c4.1-5.6,6.5-9,7.2-10.1C65.8,52.6,72.2,44.5,75.8,41
			c2.5-2.8,5-4.9,7.3-6.5c2.3-1.6,3.9-2.1,4.7-1.6c0.5,0.3,0.4,0.7-0.2,1c-0.1,0-0.8,0.3-1.9,1c-4.7,3.5-13.1,13.5-25,30.2
			c-3.5,4.7-8,10.8-13.7,18l-1.9,2.4c6.6,5.1,13.4,7.4,20.3,6.9C69.2,92.2,72,91.9,73.9,91.4z"/>
		<path class="st0" d="M72,138.4c-0.1,0.2-0.4,0.1-0.9-0.3l-0.5-0.2l1.6-2.4l16.6-27.2c14-22.2,24.3-37.4,30.9-45.6
			c0.8-0.9,1.4-1.3,1.7-1.2c0.3,0,0.5,0.1,0.5,0.2c0,0.6-2.1,3.9-6.2,9.9l-4.2,5.9l0.3,0.5l0.3,0.7l3.1-1.7c3-1.5,5.2-2.4,6.6-2.6
			c1.2,0,1.8,0.3,2.1,1c0.5,1.2-0.6,3.4-3.1,6.8l-2.3,2.6c4.4,1.7,9.8,0.8,16.1-2.8c2-1.2,4-2.5,6.1-4c0.2-0.2,0.4-0.3,0.6-0.2
			c0.2,0.1,0.2,0.3,0.1,0.5l-0.9,0.9c-2.5,2-4.7,3.4-6.4,4.2c-6,3.1-11.6,3.9-16.6,2.3l-1.6,1.7c-4.2,3.9-7,4.6-8.5,1.9
			c-0.6-1.2-0.6-2.7,0-4.5l0.2-0.9c-0.2,0.3-1.6,2.3-4.2,5.9C97.6,97.8,91,108,83.6,120.4C76.6,131.6,72.8,137.6,72,138.4z
			 M109.1,89.7c0.9,0.2,2-0.2,3.3-1.2c0.3-0.2,0.8-0.6,1.5-1.2c0.6-0.6,1.2-1.1,1.6-1.6l0.5-0.9c-1.5-0.8-2.8-2.1-4-3.8
			c-0.1-0.3-0.5-0.3-1,0.2c-0.6,0.5-1.2,1.3-1.7,2.6C108,87.4,107.9,89.3,109.1,89.7z M116.9,84c0.1,0,0.4-0.3,1-0.9
			c0.5-0.6,1.1-1.3,1.8-2.2s1.2-1.6,1.6-2.2c0.7-0.9,1.2-1.7,1.4-2.4c0.2-0.6,0.3-0.9,0.2-1c-0.3-0.3-2.3,0.3-5.7,1.9
			c-2.8,1.5-4.2,2.5-4.2,3.1c0,0.3,0.5,1,1.5,2.1C115.3,83.4,116.2,84,116.9,84z"/>
		<path class="st0" d="M136.3,87.3c-1.5-1.5-1.4-3.5,0.3-5.9c1.3-2.2,3.1-3.8,5.5-4.9c1.4-0.6,2.4-0.6,2.9,0
			c0.5,0.3,0.5,0.9,0.3,1.7c-0.3,0.8-0.8,1.5-1.6,2.1c-1.6,1.2-3.3,1.9-5,2.1c-0.5,0-0.9,0.3-1.2,0.9c-1.4,2.4-0.8,3.8,1.9,4.2
			c5.2,0,11.7-2.7,19.4-8.2l2.1-1.4c0.1-0.1,0.3-0.1,0.5,0c0.2,0.1,0.3,0.3,0.2,0.5c-4.3,3.5-9.1,6.2-14.6,8.3
			C141.6,88.8,138,89,136.3,87.3z M138.9,81.4c0.8,0,2-0.5,3.5-1.4c1-0.7,1.7-1.4,2.1-2.3c0.1-0.3,0-0.5-0.3-0.5l-1.9,1
			C139.9,80,138.8,81,138.9,81.4z"/>
		<path class="st0" d="M157.6,87.8c-1.3-1-1.7-2.4-1.2-4c0.6-1.6,1.8-3.4,3.6-5.2c1.8-1.8,3.6-3.2,5.5-4c1-0.5,2-0.6,2.8-0.4
			c0.8,0.2,1.2,0.5,1.2,1.1c0,0.9-0.7,2.1-2.1,3.6c-1.7,1.5-2.9,2.3-3.5,2.3c-0.8,0-0.7-0.3,0.3-1c1.3-0.8,2.4-1.8,3.3-2.9
			c0.9-1.1,1.2-1.8,0.9-2.2c-0.3-0.3-1.4,0.1-3.3,1.4c-2.4,1.5-4.4,3.3-5.8,5.5c-1.4,2.1-1.9,3.7-1.3,4.8c0.5,1,2.2,1.4,5.2,1
			c3-0.3,6.2-1.3,9.7-2.9c3.1-1.5,6.2-3.4,9.2-5.5c0.3-0.2,0.8-0.5,1.4-0.9l0.9-0.7c0.3,0,0.6,0.2,0.7,0.5l-0.9,0.7
			c-1.7,1.4-4.2,3-7.3,4.9l-3.8,1.9C165.8,89.3,160.6,90,157.6,87.8z"/>
		<path class="st0" d="M180.8,87.8c-1.3-1-1.7-2.4-1.2-4c0.6-1.6,1.8-3.4,3.6-5.2c1.8-1.8,3.6-3.2,5.5-4c1-0.5,2-0.6,2.8-0.4
			c0.8,0.2,1.2,0.5,1.2,1.1c0,0.9-0.7,2.1-2.1,3.6c-1.7,1.5-2.9,2.3-3.5,2.3c-0.8,0-0.7-0.3,0.3-1c1.3-0.8,2.4-1.8,3.3-2.9
			c0.9-1.1,1.2-1.8,0.9-2.2c-0.3-0.3-1.4,0.1-3.3,1.4c-2.4,1.5-4.4,3.3-5.8,5.5c-1.4,2.1-1.9,3.7-1.3,4.8c0.5,1,2.2,1.4,5.2,1
			c3-0.3,6.2-1.3,9.7-2.9c3.1-1.5,6.2-3.4,9.2-5.5c0.3-0.2,0.8-0.5,1.4-0.9l0.9-0.7c0.3,0,0.6,0.2,0.7,0.5l-0.9,0.7
			c-1.7,1.4-4.2,3-7.3,4.9l-3.8,1.9C189,89.3,183.9,90,180.8,87.8z"/>
		<path class="st0" d="M212.6,79.1c-0.6-0.1-0.9-0.3-1-0.7v-0.3c0-0.1,0.2-0.2,0.5-0.2c0.1,0,0.2,0,0.3-0.1c0.1-0.1,0.2-0.1,0.3-0.1
			c1.4-0.2,4.5-0.2,9.4,0.2c0.8,0.1,1.5,0.3,2.1,0.5c0.6,0.2,0.8,0.5,0.7,0.7c-0.1,0.2-2,0.4-5.5,0.4
			C215.8,79.6,213.5,79.5,212.6,79.1z"/>
		<path class="st0" d="M243.4,89.3c-2.4-0.8-2.8-3.8-1.2-9l0.3-1.4c-0.2-0.2-1,0.2-2.3,1.2c-0.9,0.7-2.1,1.8-3.6,3.2
			c-1.5,1.4-2.4,2.4-2.6,2.9c-0.3,0.6-0.5,1-0.5,1.2c0,0.5-0.2,0.5-0.7,0c-0.9-0.9,0.4-3.8,4-8.7c1.6-2.2,3.2-4,4.9-5.4
			c0.9-0.8,1.6-0.9,2.1-0.3c0.3,0.5-0.2,1.5-1.7,3.1c-1.5,1.4-2.7,2.7-3.5,4c0.2-0.1,0.5-0.3,0.7-0.5c4.5-3.8,9-6.5,13.5-8.2
			c1.3-0.5,2.3-0.5,2.9-0.2c0.7,0.3,1,1,0.9,1.9c-0.1,0.7-0.8,1.9-2,3.7c-1.2,1.8-2.2,3-3,3.7c-0.8,0.8-1.4,1-1.7,0.7
			c-0.1-0.1,0.1-0.3,0.5-0.7c0.6-0.5,1.7-1.9,3.5-4.3c1.2-2.1,1.7-3.4,1.7-3.8c0-1-2.3-0.3-6.9,2.1c-0.1,0.1-0.3,0.2-0.5,0.3
			c-2.9,1.6-4.6,2.7-5,3.1c0,0.2,0.1,0.4,0.2,0.5c0.3,0.3,0.2,1.3-0.3,2.9c-0.2,0.9-0.3,2.1-0.3,3.5c-0.1,2.4,0.6,3.6,2.3,3.6
			c2.3,0,5.8-1.6,10.6-4.9c0.9-0.6,2.7-1.9,5.2-4l2.4-1.7l0.5-0.3c0.2-0.1,0.4-0.1,0.5,0v0.7l-1.4,1c-5.7,4.4-9.9,7.3-12.7,8.7
			C247.3,89.5,245.1,89.9,243.4,89.3z"/>
		<path class="st0" d="M259.1,86c-0.5-0.6-0.5-1.4,0-2.6c0.3-1.2,1.5-2.8,3.5-5c1-1.2,2-2.1,2.9-2.8l1.7-1c0.6,0,0.9-0.2,0.9-0.5
			c0-0.1,0.3-0.2,0.9-0.2c0.8,0.2,1.3,0.5,1.4,0.9c-0.2,0.2-0.4,0.3-0.5,0.2c-0.2,0.1-0.4,0.3-0.5,0.7l-0.3,1.6
			c-0.2,1.4,0,2.4,0.7,3.1c3.5,3.1,8.1,2.5,13.9-1.9l1.2-0.7c0.5-0.2,0.8-0.1,0.9,0.3l-2.1,1.6c-1.8,1.4-4,2.4-6.4,2.9
			c-2.4,0.6-4.7,0.3-6.9-0.9c-0.7-0.6-1.2-1.1-1.6-1.6c-0.2-0.5-0.4-0.6-0.5-0.3c-0.8,1.6-1.9,3.1-3.3,4.5
			C262.1,86.9,260.2,87.4,259.1,86z M260.1,85.9c0.5,0.6,1.8-0.2,4-2.4c1.6-1.4,2.8-3.1,3.5-5.2c0.2-0.7,0.3-1.2,0.3-1.6l-0.2-0.7
			l-1.7,1.7c-2.1,1.9-3.7,3.6-4.9,5.4C260.3,84.6,260,85.5,260.1,85.9z"/>
		<path class="st0" d="M235.1,147.1c-2.5,1.7-4.9,2.6-6.9,2.5c-2.1-0.1-3.5-1-4.3-2.7c-1.3-3.9,0.3-9.5,4.7-16.6
			c1.7-3,4.2-6.5,7.5-10.4c4.7-4.9,9.9-8.5,15.6-10.9c2-0.8,6-2,12.1-3.6l5.7-1.6c0.5-0.1,1.6-1.3,3.3-3.6c1.4-1.8,2.6-3.5,3.6-4.9
			c4.3-5.5,6.1-8.3,5.5-8.3c-0.9,0.2-1.6-0.1-2.1-0.9c-1-1.7,0.9-5,5.7-9.9c3.1-2.8,5.5-4,7.3-3.6l0.5,0.3l5.9-7.5
			c1.2-1.2,1.9-1.7,2.3-1.6c0.5,0.1-0.7,2.1-3.5,5.9c-0.5,0.6-1.1,1.4-1.9,2.6l-2.6,3.5l-19.8,26.5c0.2,0.2,3.4-0.9,9.5-3.3
			c8-3.1,16.2-7.6,24.6-13.4c3-2,5.5-3.8,7.6-5.5c2.9-2.3,5.4-4.5,7.5-6.6c0.1-0.1,0.3-0.3,0.4-0.5c0.2-0.2,0.4-0.5,0.6-0.7
			c0.3-0.3,0.5-0.6,0.3-0.7c-0.2-0.2-0.2-0.3,0.2-0.3c1.5,0,0.8,1.4-2.1,4.3c-0.5,0.5-1.2,1.1-2.1,1.8c-0.9,0.8-1.5,1.2-1.7,1.5
			c-2.5,2.2-5.1,4.2-7.6,6.1c-3.2,2.2-6,4-8.3,5.4c-2.5,1.5-5.4,3.1-8.5,4.9c-3.7,1.9-6.5,3.2-8.3,4c-3.9,1.7-7.5,3.1-10.8,4.2
			l-2.8,0.9l-2.9,3.8c-1.4,1.9-3.6,4.7-6.6,8.6c-3,3.9-5.6,7.3-7.8,10.1c-2.2,2.9-3.9,5-5.2,6.4C244,140,239.1,144.7,235.1,147.1z
			 M229,148.5c1.9-0.6,2.8-0.9,2.9-0.9c7.4-3.7,19.2-17.2,35.5-40.4l1.6-1.9h-0.7c-0.7,0.1-2.8,0.6-6.2,1.6
			c-3.5,0.9-5.3,1.4-5.5,1.6c-2.4,0.8-5.4,2.1-9,3.8c-3.6,2.2-7.2,5.2-10.8,9c-3.7,4-6.9,8.8-9.5,14.4c-3.1,6.5-3.4,10.7-0.7,12.7
			C227,148.5,227.8,148.6,229,148.5z M281.8,85.3c0.1,0.1,0.5,0,1-0.3c0.6-0.3,1.2-0.7,1.9-1.3c0.7-0.6,1.3-1.2,1.7-1.7
			c3.9-5.1,5.9-7.9,5.9-8.3c0-0.7-1.3,0.2-4,2.8c-0.3,0.2-0.7,0.5-1,0.9c-2.4,2.3-4.2,4.6-5.2,6.8L281.8,85.3z"/>
	</g>
</g>
</svg>
