<?xml version="1.0" encoding="UTF-8"?>
<svg id="_Слой_2" data-name="Слой 2" xmlns="http://www.w3.org/2000/svg" viewBox="0 0 433.18 687.75">
  <defs>
    <style>
      .cls-1 {
        fill: #b6d0ba;
      }
    </style>
  </defs>
  <g id="Layer_1" data-name="Layer 1">
    <g>
      <path class="cls-1" d="M140.89,57.6c5.18,6.84,7.22,15.1,9.66,23.01,9.8,31.78,24.12,61.74,36.4,92.52,.43,1.08,1.05,2.1,2.23,4.43,2.21-6.02,4.04-10.94,5.83-15.87,11.33-31.21,25.78-61.06,39.91-91.05,.58-1.23,1.6-2.25,2.41-3.37-3.17,11.44-9.23,21.65-13.82,32.48-9.67,22.83-20.4,45.2-28.82,68.58-3.15,8.74-3.6,16.28,.83,25.06,12.06,23.94,23.5,48.18,36.26,71.77,2.11,3.91,3.13,4.65,6.17,.41,30-41.76,59.89-83.58,88.72-126.16,21.88-32.31,45.34-63.5,68.96-94.54,11.51-15.12,23.42-29.93,35.15-44.88h2.4c-7.04,11.47-16.02,21.45-24.4,31.89-23.82,29.66-46.59,60.11-68.34,91.3-32.04,45.96-63.41,92.39-96.65,137.5-8.26,11.21-8.54,11.62-.39,23.14,10.75,15.2,15.28,31.91,14.65,50.3-.25,7.4,.23,14.84-.36,22.21-1.06,13.21-.61,26.33,.03,39.54,.97,19.77,.6,39.61,1.42,59.39,1.15,27.77-.17,55.05-10.32,81.46-3.86,10.04-5.14,20.94-6.76,31.64-2.75,18.19-7.96,35.53-19.09,50.59-2.43,3.29-2.73,6.71-1.91,10.71,1.86,9.08-3.91,17.29-12.94,18.59-2.43,.35-3.55,1.71-4.44,3.48-6.86,13.7-19.11,22.43-29.98,32.38-6.7,6.14-13.17,4.22-17.4-3.86-4.11-7.87-3.3-14.96,1.95-21.83,.49-.64,.82-1.45,1.44-1.91,15.22-11.44,9.41-25.24,4.53-39.02-1.36-3.84-3.55-4.69-7.36-3.79-15.3,3.61-30.67-.67-46.02,.04-4.21,.19-6.9-2.91-7.97-6.99-1.5-5.71-.12-10.76,4.1-14.85,2.75-2.66,4.91-4.08,2.23-9.16-4.03-7.66,3.74-18.24,12.72-19.27,4.88-.56,9.52,.82,14.22,1.75,3.28,.65,6.47,2.07,10.7,1.62-10.35-9.86-11.3-21.92-10.33-34.54,.12-1.58-.08-3.18-.13-4.77,.27-.53,.7-1.04,.8-1.6,2.34-13.44,5.52-26.59,11.44-39.02,2-4.2-1.09-4.41-4.48-3.95-9,1.2-11.86-.69-14.42-9.42-.9-3.06-1.49-6.24-1.85-9.41-.99-8.78-2.73-17.37-5.16-25.87-4.17-14.62-8.44-29.22-12.01-44-2.76-11.43,.13-20.22,7.47-25.58-8.69,11.45-5.74,23.59-2.46,35.74,.1,.39,.26,.76,.34,1.15,4.11,18.95,11.85,37.01,13.92,56.47,.46,4.36,.82,8.75,2.6,12.89,1.8,4.2,4.59,6.09,9.36,5.63,9.69-.93,14.99-7.45,16.12-19.06,1.36-14.04-3.21-26.76-7.28-39.77-7.44-23.83-3.98-45.88,12.64-65.05,7.86-9.07,9.96-18.44,5.02-29.71-7.13-16.25-17.06-30.77-26.65-45.54-2.42-3.72-4.17-2.47-6.34,.07-8.71,10.21-15.24,21.79-18.61,34.65-6.2,23.67-10.1,47.71-9.14,72.38,.75,19.36,.84,38.75,1.12,58.12,.04,2.98,.04,6.11-.78,8.93-3.82,13.13-.09,24.03,8.01,34.66,8.6,11.28,14.38,24.37,20.29,37.26-3.84-2.31-5.52-6.28-7.31-10.02-5.36-11.23-11.49-21.92-18.94-31.95-5.69-7.66-7.66-16.68-5.05-26.22,.97-3.53,1.12-7.13,1.09-10.71-.17-22.82-.42-45.63-.93-68.45-.49-21.71,2.87-43.12,8.56-64.07,3.39-12.48,9.39-23.79,17.95-33.61,6-6.89,6.03-6.85,1.04-14.55C131.69,266.27,.04,69.67,0,67.31c4.34,6.22,139.38,207.33,143.7,213.57,9.37,13.5,17.79,27.55,25.3,42.2,3.4,6.64,3.84,13.79,5.64,20.71,.57,2.19-1.5,3.05-2.53,4.42-8.47,11.21-16.54,22.64-20.61,36.34-4.3,14.49-.41,28.3,3.81,42.07-1.07-6.79-2.14-13.59-3.2-20.38,.38-.07,.75-.13,1.13-.2,.79,4.26,1.6,8.52,2.37,12.79,1.51,8.27,2.49,16.67,4.63,24.77,2.94,11.08,1.75,21.64-3.3,31.5-3.74,7.32-4.08,13.42,.56,20.51,7.76,11.85,14.76,24.21,22.66,37.34,4.24-7.99,6.26-15.61,8.85-23.04,2.82-8.09,1.57-16.2,1.5-24.34-.08-9.01-.12-18.02-.08-27.03,.01-2.74-.27-5.59,2.56-9.67-.04,13.99-.8,26.37,0,38.65,10.95-23.68,27.55-44.89,31.68-71.6,.14-.88,.77-1.69,1.24-2.65,2.34,1.41,1.05,3.08,.75,4.38-4.42,18.88-11.66,36.57-22.54,52.71-8.02,11.9-10.57,25.33-10.35,39.39,.11,7.15-.57,14.38,2.18,21.35,.99,2.52-1.63,4.36-3.05,6.19-3.49,4.49-3.8,8.52-.42,13.54,4,5.95,7.31,12.43,10.31,18.96,4.09,8.88,7.84,17.97,6.92,29.17,5.45-3.17,8.32-7.13,9.3-11.7,6.41-29.84,23.09-55.28,35.12-82.7,2.21-5.03,3.46-10.11,3.44-15.67-.08-27.63-.96-55.24-1.62-82.85-.57-23.43-.91-46.77,.09-70.19,.74-17.49-3.28-33.75-13.21-48.94-23.4-35.8-41.4-74.55-58.2-113.75-11.34-26.47-23.62-52.62-32.45-80.11-3.79-11.8-8.68-23.25-11.28-35.43Zm67.56,545.61c5.22,4.29,6.11,11.4,10.81,16.54,7.13-10.78,14.72-20.99,16.87-34.11,2.1-12.81,4.32-25.62,7.18-38.27,2.44-10.79,5.87-21.36,8.86-32.03-4.06,7.6-7.5,15.46-11.5,23.02-6.09,11.51-12.24,23-15.09,35.8-2.6,11.62-6.56,22.22-17.1,29.07-2.16,1.76-4.29,3.56-6.5,5.27-1.43,1.11-2.98,2.21-4.92,1.35-2.43-1.08-4.71-2.34-6.76,.77-2.2,3.34-3.98,7.19-1.84,10.61,4.32,6.92,9.42,13.36,14.29,19.93,1.72,2.32,3.49,2.39,5.05-.34,2.29-3.98,4.46-8.04,7.05-11.82,2.59-3.79,2.36-7.24,.32-11.15-2.48-4.76-5.53-9.28-6.71-14.64Zm-48.2-.42c.44,1.07,.85,2.16,1.32,3.21,3.01,6.68,7.56,2.04,11.14,1.11,4.73-1.22,1.81-4.46,.58-6.58-3.91-6.74-7.99-13.38-12.2-19.94-2.37-3.69-5.37-3.59-6.82,.46-.83,2.3-.78,2.67-2.5,.81-1.08-1.17-2.62-.64-3.99-.4-8.46,1.48-16.97,2.71-25.35,4.54-5.71,1.25-11,3.73-14.72,8.62-3.07,4.04-3.41,8.54-1.46,13.03,1.76,4.03,5.65,3.87,9.31,3.85,2.8-.01,5.61,.2,8.39-.03,9.39-.75,18.64,2.41,28.08,.69,5.39-.98,10.78-1.43,8.2-9.38Zm-8.93-114.39c-7.2,13.12-10.38,26-11.51,39.48-.12,1.49,.35,2.76,1.18,3.92,7.25,10.07,14.52,20.12,21.74,30.2,1.65,2.3,3.08,2.08,4.68,0,5.87-7.6,8.84-16.52,11.46-25.56,.24-.81-.2-2.04-.72-2.82-9.42-14.36-17.69-29.41-26.84-45.23Zm37.56,137.48c-2.25,5.25-1.36,10.99-6.86,13.19-9.41,3.76-14.72,11.9-20.85,19.22-5.38,6.41-6.14,13.11-2.36,20.56,3.31,6.54,7.72,7.98,13.38,3.3,7.39-6.12,14.51-12.59,21.41-19.26,4.2-4.06,6.46-9.59,9.29-14.66,.77-1.38,.72-2.55-.26-3.86-4.43-5.89-8.8-11.82-13.74-18.49Zm-1.31-78.33c-1.24,2.08-2,3.21-2.62,4.42-3.39,6.64-4.89,14.49-12.52,18.35-2.31,1.17-.89,3.08,.19,4.55,5.77,7.88,11.62,15.72,16.35,24.3,3.31,6,8.25,3.39,12.8,2.63,4.9-.81,5.69-4.41,5.21-8.55-1.95-16.9-10.32-31-19.42-45.7Zm-71.34,37.45c9.39-2.97,19.78-3.71,29.91-5.83,2.2-.46,4.75-.6,4.16-3.75-.55-2.95-.25-6.79-4.95-6.85-6.24-.08-12.18-1.94-18.25-3.03-8.4-1.51-16.32,4.56-16.75,12.91-.19,3.64,1.17,6.23,5.87,6.56Zm23.21-52.33c-1.32,9.48-.89,16.89,2.16,24.04,2.75,6.45,9.84,10.65,16.8,10.16,3.02-.21,4.22-1.02,2.19-3.91-6.72-9.6-13.43-19.22-21.16-30.29Zm35.43,76.59c-2.52,.78-5.37,1.66-8.22,2.52-1.77,.54-2.05,1.77-1.42,3.26,2.68,6.25,3.85,12.94,5.84,19.39,1.08,3.5,3.16,3.03,5.3,.93,4.11-4.04,5.99-9.3,7.37-14.67,.82-3.17-5.76-11.55-8.88-11.43Zm14.12-5.71c-5.32-9.74-11.22-18.45-17.52-26.91-2.23-3-4.24-4.37-7.83-2.07-4.25,2.71-.87,4.88,.48,6.76,3.73,5.19,6.92,10.68,10.05,16.23,4.52,8.04,4.61,8,14.82,5.99Zm-7.56-64.03c-1.67,1.86-2.11,4-2.84,6.04-2.02,5.65-4.27,11.18-7.6,16.26-1.28,1.96-5.35,3.9-3,6.18,2.52,2.45,5.29-1.09,7.7-2.56,1.96-1.2,2.71-3.39,3.56-5.43,1.54-3.69,2.88-7.48,4.68-11.03,2.01-3.95,.92-6.76-2.51-9.46Zm9.59-26.2c-1.29,4.36-3,8.52-4.8,12.65-1.19,2.73-2.43,5.51-3.08,8.39-.68,3.07,3.22,7.56,4.43,6.04,2.46-3.08,7.01-5.7,5.51-10.47-1.72-5.47-1.67-10.97-2.07-16.61Z"/>
      <path class="cls-1" d="M237.3,67.31c2.49-10.31,7.49-19.62,11.65-29.27,5.58-12.95,14.13-24.46,18.4-38.05h2.4c-1.2,4.71-3.69,8.86-6.01,13.02-8.98,16.07-16.55,32.79-23.68,49.74-.68,1.62-1.83,3.04-2.76,4.56Z"/>
    </g>
  </g>
</svg>