<?xml version="1.0" encoding="UTF-8"?>
<svg id="_Слой_2" data-name="Слой 2" xmlns="http://www.w3.org/2000/svg" viewBox="0 0 311.95 495.27">
  <defs>
    <style>
      .cls-1 {
        fill: #f0f0f1;
      }
    </style>
  </defs>
  <g id="Layer_1" data-name="Layer 1">
    <g>
      <path class="cls-1" d="M101.46,41.48c3.73,4.92,5.2,10.88,6.96,16.57,7.05,22.88,17.37,44.46,26.21,66.63,.31,.78,.75,1.51,1.61,3.19,1.59-4.34,2.91-7.88,4.2-11.43,8.16-22.48,18.57-43.97,28.74-65.57,.42-.89,1.15-1.62,1.74-2.43-2.28,8.24-6.65,15.59-9.95,23.39-6.96,16.44-14.69,32.55-20.75,49.39-2.27,6.29-2.59,11.72,.6,18.04,8.68,17.24,16.92,34.7,26.11,51.68,1.52,2.81,2.25,3.35,4.45,.3,21.6-30.07,43.13-60.19,63.89-90.85,15.76-23.27,32.65-45.73,49.66-68.08,8.29-10.89,16.87-21.55,25.32-32.32h1.73c-5.07,8.26-11.53,15.45-17.57,22.97-17.15,21.36-33.55,43.29-49.21,65.75-23.07,33.1-45.66,66.53-69.6,99.02-5.95,8.07-6.15,8.36-.28,16.66,7.74,10.95,11,22.98,10.55,36.22-.18,5.33,.16,10.69-.26,15.99-.76,9.51-.44,18.96,.02,28.48,.7,14.24,.43,28.52,1.02,42.77,.83,20-.12,39.65-7.43,58.66-2.78,7.23-3.7,15.08-4.87,22.79-1.98,13.1-5.73,25.59-13.75,36.43-1.75,2.37-1.97,4.83-1.38,7.72,1.34,6.54-2.82,12.45-9.32,13.39-1.75,.25-2.56,1.23-3.19,2.51-4.94,9.86-13.76,16.15-21.59,23.32-4.83,4.42-9.49,3.04-12.53-2.78-2.96-5.66-2.38-10.77,1.4-15.72,.35-.46,.59-1.05,1.03-1.38,10.96-8.24,6.77-18.17,3.26-28.1-.98-2.77-2.55-3.37-5.3-2.73-11.02,2.6-22.08-.48-33.14,.03-3.03,.14-4.97-2.1-5.74-5.03-1.08-4.11-.09-7.75,2.95-10.69,1.98-1.92,3.53-2.94,1.61-6.6-2.9-5.51,2.69-13.14,9.16-13.88,3.52-.4,6.86,.59,10.24,1.26,2.36,.47,4.66,1.49,7.7,1.16-7.45-7.1-8.14-15.79-7.44-24.88,.09-1.14-.06-2.29-.1-3.44,.2-.38,.51-.75,.58-1.16,1.69-9.68,3.98-19.15,8.24-28.1,1.44-3.02-.78-3.17-3.23-2.85-6.48,.86-8.54-.5-10.38-6.79-.65-2.2-1.08-4.49-1.33-6.77-.71-6.32-1.97-12.51-3.71-18.63-3-10.53-6.08-21.05-8.65-31.68-1.99-8.23,.1-14.56,5.38-18.42-6.26,8.25-4.13,16.99-1.77,25.74,.07,.28,.18,.55,.24,.83,2.96,13.65,8.53,26.65,10.03,40.67,.33,3.14,.59,6.3,1.87,9.28,1.3,3.02,3.3,4.39,6.74,4.06,6.98-.67,10.8-5.36,11.61-13.73,.98-10.11-2.31-19.27-5.24-28.64-5.36-17.16-2.86-33.04,9.1-46.85,5.66-6.53,7.17-13.28,3.61-21.39-5.13-11.7-12.28-22.16-19.19-32.79-1.74-2.68-3-1.78-4.57,.05-6.27,7.36-10.97,15.69-13.4,24.95-4.46,17.04-7.27,34.35-6.58,52.12,.54,13.94,.6,27.9,.81,41.86,.03,2.15,.03,4.4-.56,6.43-2.75,9.46-.06,17.31,5.77,24.96,6.2,8.13,10.35,17.55,14.61,26.83-2.76-1.66-3.97-4.52-5.26-7.21-3.86-8.09-8.27-15.78-13.64-23.01-4.1-5.51-5.51-12.01-3.64-18.88,.7-2.54,.81-5.13,.79-7.71-.13-16.43-.3-32.86-.67-49.29-.35-15.63,2.07-31.05,6.17-46.14,2.44-8.99,6.76-17.13,12.92-24.2,4.32-4.96,4.35-4.93,.75-10.48C94.83,191.75,.03,50.17,0,48.47c3.12,4.48,100.37,149.3,103.49,153.79,6.75,9.72,12.81,19.84,18.22,30.39,2.45,4.78,2.76,9.93,4.06,14.91,.41,1.58-1.08,2.19-1.82,3.18-6.1,8.07-11.91,16.3-14.84,26.17-3.1,10.43-.3,20.38,2.74,30.29-.77-4.89-1.54-9.79-2.31-14.68,.27-.05,.54-.1,.81-.14,.57,3.07,1.15,6.14,1.71,9.21,1.09,5.95,1.79,12.01,3.34,17.84,2.11,7.98,1.26,15.58-2.38,22.69-2.7,5.27-2.94,9.67,.4,14.77,5.59,8.53,10.63,17.43,16.32,26.89,3.05-5.76,4.51-11.24,6.37-16.59,2.03-5.83,1.13-11.66,1.08-17.53-.06-6.49-.09-12.98-.06-19.47,0-1.97-.19-4.03,1.84-6.97-.03,10.07-.58,18.99,0,27.83,7.89-17.05,19.84-32.33,22.81-51.56,.1-.64,.56-1.21,.89-1.91,1.69,1.01,.76,2.22,.54,3.15-3.19,13.6-8.39,26.33-16.23,37.95-5.78,8.57-7.61,18.24-7.45,28.37,.08,5.15-.41,10.35,1.57,15.38,.71,1.81-1.17,3.14-2.2,4.46-2.51,3.23-2.73,6.13-.3,9.75,2.88,4.28,5.26,8.95,7.43,13.66,2.94,6.4,5.64,12.94,4.98,21,3.92-2.28,5.99-5.13,6.7-8.43,4.61-21.49,16.63-39.81,25.29-59.55,1.59-3.63,2.49-7.28,2.48-11.28-.06-19.89-.69-39.78-1.17-59.66-.41-16.87-.65-33.68,.06-50.55,.53-12.6-2.36-24.31-9.51-35.24-16.85-25.78-29.81-53.68-41.91-81.91-8.17-19.06-17.01-37.9-23.36-57.69-2.73-8.5-6.25-16.75-8.13-25.51Zm48.65,392.91c3.76,3.09,4.4,8.21,7.79,11.91,5.13-7.76,10.6-15.11,12.15-24.56,1.51-9.22,3.11-18.45,5.17-27.56,1.76-7.77,4.23-15.38,6.38-23.06-2.93,5.47-5.4,11.13-8.28,16.58-4.39,8.29-8.81,16.56-10.87,25.78-1.87,8.37-4.72,16-12.31,20.93-1.56,1.27-3.09,2.57-4.68,3.79-1.03,.8-2.14,1.59-3.55,.97-1.75-.78-3.39-1.68-4.87,.55-1.59,2.4-2.87,5.18-1.33,7.64,3.11,4.98,6.78,9.62,10.29,14.36,1.24,1.67,2.51,1.72,3.64-.24,1.65-2.87,3.21-5.79,5.07-8.51,1.86-2.73,1.7-5.21,.23-8.03-1.78-3.43-3.98-6.68-4.83-10.54Zm-34.71-.3c.32,.77,.61,1.55,.95,2.31,2.17,4.81,5.44,1.47,8.02,.8,3.41-.88,1.3-3.21,.42-4.74-2.81-4.85-5.76-9.64-8.79-14.36-1.7-2.66-3.87-2.58-4.91,.33-.59,1.66-.56,1.92-1.8,.59-.78-.85-1.89-.46-2.87-.29-6.09,1.06-12.22,1.95-18.25,3.27-4.11,.9-7.92,2.69-10.6,6.21-2.21,2.91-2.46,6.15-1.05,9.38,1.26,2.9,4.07,2.78,6.7,2.77,2.02-.01,4.04,.14,6.04-.02,6.76-.54,13.42,1.74,20.22,.5,3.88-.71,7.77-1.03,5.9-6.76Zm-6.43-82.37c-5.19,9.45-7.48,18.72-8.29,28.43-.09,1.08,.25,1.99,.85,2.83,5.22,7.25,10.46,14.49,15.66,21.75,1.19,1.66,2.22,1.5,3.37,0,4.23-5.48,6.36-11.89,8.25-18.41,.17-.58-.15-1.47-.52-2.03-6.78-10.34-12.74-21.18-19.33-32.57Zm27.05,99c-1.62,3.78-.98,7.91-4.94,9.5-6.78,2.71-10.6,8.57-15.01,13.84-3.87,4.62-4.42,9.44-1.7,14.81,2.38,4.71,5.56,5.75,9.63,2.37,5.32-4.41,10.45-9.07,15.42-13.87,3.03-2.92,4.65-6.91,6.69-10.56,.56-1,.52-1.84-.19-2.78-3.19-4.24-6.33-8.51-9.89-13.32Zm-.94-56.41c-.89,1.5-1.44,2.31-1.88,3.19-2.44,4.78-3.52,10.43-9.01,13.21-1.67,.84-.64,2.22,.14,3.28,4.16,5.68,8.37,11.32,11.77,17.5,2.38,4.32,5.94,2.44,9.21,1.9,3.53-.59,4.1-3.18,3.75-6.16-1.41-12.17-7.43-22.32-13.98-32.91Zm-51.37,26.97c6.76-2.14,14.24-2.67,21.54-4.2,1.58-.33,3.42-.43,3-2.7-.4-2.12-.18-4.89-3.57-4.94-4.49-.06-8.77-1.4-13.14-2.18-6.05-1.08-11.75,3.29-12.06,9.3-.13,2.62,.84,4.49,4.23,4.73Zm16.72-37.69c-.95,6.83-.64,12.16,1.56,17.31,1.98,4.64,7.09,7.67,12.1,7.32,2.17-.15,3.04-.73,1.58-2.81-4.84-6.91-9.67-13.84-15.24-21.81Zm25.51,55.16c-1.82,.56-3.86,1.2-5.92,1.82-1.28,.39-1.48,1.27-1.02,2.35,1.93,4.5,2.77,9.32,4.21,13.96,.78,2.52,2.28,2.18,3.82,.67,2.96-2.91,4.31-6.7,5.31-10.57,.59-2.28-4.14-8.32-6.4-8.23Zm10.17-4.11c-3.83-7.01-8.08-13.28-12.61-19.38-1.61-2.16-3.06-3.15-5.64-1.49-3.06,1.95-.63,3.51,.35,4.87,2.69,3.74,4.99,7.69,7.24,11.69,3.26,5.79,3.32,5.76,10.67,4.31Zm-5.44-46.11c-1.21,1.34-1.52,2.88-2.04,4.35-1.45,4.07-3.08,8.05-5.47,11.71-.92,1.41-3.85,2.81-2.16,4.45,1.81,1.76,3.81-.78,5.54-1.84,1.41-.86,1.95-2.44,2.57-3.91,1.11-2.66,2.07-5.39,3.37-7.94,1.45-2.85,.66-4.87-1.81-6.81Zm6.9-18.87c-.93,3.14-2.16,6.13-3.46,9.11-.86,1.97-1.75,3.97-2.21,6.04-.49,2.21,2.32,5.44,3.19,4.35,1.77-2.22,5.05-4.11,3.97-7.54-1.24-3.94-1.2-7.9-1.49-11.96Z"/>
      <path class="cls-1" d="M170.89,48.47c1.79-7.43,5.39-14.13,8.39-21.08,4.02-9.33,10.18-17.62,13.25-27.4h1.73c-.86,3.39-2.66,6.38-4.33,9.37-6.46,11.57-11.92,23.61-17.05,35.82-.49,1.17-1.32,2.19-1.99,3.28Z"/>
    </g>
  </g>
</svg>