<?xml version="1.0" encoding="UTF-8"?>
<svg id="_Слой_2" data-name="Слой 2" xmlns="http://www.w3.org/2000/svg" viewBox="0 0 300.54 103.47">
  <defs>
    <style>
      .cls-1 {
        fill: #a0c9a7;
      }
    </style>
  </defs>
  <g id="Layer_1" data-name="Layer 1">
    <g>
      <path class="cls-1" d="M192.71,87.54c-.18-.18-.36-.36-.55-.55,.96-1.08,1.93-2.15,2.89-3.23-.26,1.65-.97,2.93-2.34,3.77Z"/>
      <path class="cls-1" d="M190.23,9.36C183.8,.02,173.62-2.48,163.58,2.55c-4.82,2.41-8.43,6.1-11,11.16-.83-1.12-1.46-1.94-2.05-2.79-4.41-6.29-10.18-9.54-18.13-8.83-9.22,.82-17.45,8.61-17.61,17.62-.2,11.01,3.3,20.89,11.81,28.02,9.3,7.79,17.63,16.41,25.29,25.75,.42,.51,1.33,.97,.43,1.69-1.12,.9-1.28,2.27-1.83,3.42-1.77-1.5-3.45-2.93-5.14-4.34-.41-.34-.86-.8-1.41-.48-.68,.39-.44,1.11-.3,1.68,.34,1.37,.87,2.71,1.12,4.1,.36,1.95-.98,4.22-2.45,4.42-2.35,.32-8.93-3-10.04-5.15-1.1-2.12-2.13-4.29-3.16-6.45-.34-.71-.87-1.55-.14-2.21,.82-.74,1.68-.12,2.42,.36,2.23,1.45,3.67,3.61,4.94,5.85,.89,1.57,1.62,2.88,3.43,1.24-2.36-.47-5.51-5.59-4.87-8.08-.74-.11-1.02,1.42-1.66,.76-1.33-1.38-3.45-1.46-4.59-3.03-.19,.19-.38,.39-.57,.58,0,0,0,0,0,0,.4,1.63-.41,2.36-1.89,2.8-1.98,.58-2.64,1.94-1.91,3.91,.51,1.37,1.03,2.74,1.5,3.99-2.98,1.15-5.21,.46-6.75-2.43,.44,2.02,1.16,3.77,1.18,5.76,.04,3.72,.47,7.44,.68,11.16,.11,1.98-.1,3.9-1.35,5.57-.58,.77-1.37,1.27-2.28,1.03-.94-.25-.88-1.22-.89-2.01-.02-1.88-.33-3.71-.96-5.48-2-5.67-3.64-11.49-6.09-16.96-2.84-6.34-3.28-12.99-3.97-19.68-.38-3.72-.68-7.93-3.54-10.35-4.34-3.67-9.05-7.15-15.08-7.87-6.35-.76-13.14,.42-18.63-4.19-14.75-4.71-28.31-1.8-40.51,7.12-8.43,6.16-17.04,10.04-27.6,6.8v1.07c1.68,.53,3.31,1.1,5.14,1.21,8.43,.5,15.5-2.48,22.13-7.52,8.86-6.75,18.89-10.36,30.25-9.64,5.85,.37,11.31,1.62,16.24,5.48-1.1,.42-1.94,.68-2.72,1.06-2.67,1.29-4.38,3.16-4.31,6.4,.07,3.12,1.1,4.86,3.63,5.36,3.15,.62,5.5-.71,6.54-3.61,1.09-3.06,.45-5.9-1.26-8.78,8.37-.71,15.85,.65,22.63,5.53,2.31,1.66,4.04,3.41,4.65,6.14,.58,2.6,1.23,5.18,1.4,7.86,.31,4.96,.79,9.9,2.53,14.63,3.26,8.87,7.7,17.36,8.71,26.98,.19,1.78,1.69,2.16,3.26,1.21,1.88-1.14,2.96-2.8,2.98-5.03,.02-4.53,0-9.06,0-13.65,1.14,.85,1.23,2.37,1.44,3.62,1.07,6.21,4.74,10.1,10.45,12.3,3.01,1.16,5.26-.42,5.32-3.65,.01-.85-.5-2.1,.26-2.49,3.45-1.73,3.19-5.91,5.72-8.29,1.27-1.2,1.21-3.23,.54-5.05-.31-.86-.98-1.69-.69-2.74,5.05,3.04,6.43,5.72,5.93,11.37-.24,2.73,.22,3,2.94,1.75-.04-.46-.18-.78-.73-.5-.97,.23-1.44,.06-1.38-1.14,.12-2.21,.14-4.44,.02-6.66-.13-2.29,.85-3.77,2.63-5.14,7.12-5.44,14.27-10.85,21.16-16.57,8.29-6.87,14.28-15.65,18.47-25.44,3.59-8.37,1.3-16.45-3.67-23.68ZM75.4,47.38c-1,1.96-2.84,2.39-4.79,1.93-1.94-.46-3.08-1.71-2.75-3.72,.03-3.61,2.5-6.36,5.9-6.93,.88-.15,1.1,.37,1.41,.87,1.57,2.57,1.58,5.23,.24,7.86Zm58.87,49.41c-6.05-2.2-10.83-8.89-10.97-15.24-.03-1.53,.78-1.66,1.85-1.33,1.52,.46,2.3,1.69,2.5,3.16,.6,4.46,4.21,6.95,7.54,7.45,2.82,.42,2.61,1.54,2.98,2.92,0,2.5-1.81,3.8-3.91,3.04Zm3.85-6.56c-4.06-.02-7.64-2.47-9.13-6.29-1.22-3.13-2.37-6.29-3.61-9.41-.45-1.12-.57-2.14,.63-2.74,1.32-.67,1.66,.55,2.13,1.35,.63,1.07,1.45,2.11,1.73,3.27,1.14,4.74,5.37,6.13,8.79,8.41,.13,.09,.35,.03,.52,.08,.93,.27,2.56-.86,2.64,1.12,.07,1.85-2.15,4.24-3.71,4.23Zm16.15-66.06c-.08,.88-.47,1.58-1.34,1.74-1.03,.19-1.35-.67-1.59-1.43-.81-2.6-.35-5.05,1.09-7.66,1.44,2.46,2.09,4.79,1.84,7.34Zm36.99,11.57c-5.77,10.47-12.98,19.54-22.47,26.65-4.54,3.41-8.92,7.02-13.52,10.35-1.04,.75-1.62,.83-2.63-.11-2.22-2.08-4.23-4.39-5.89-6.86-4.35-6.47-10.27-11.25-16.23-16.02-8.23-6.59-13.18-15.02-14.34-25.54-1.62-14.68,12.1-25.15,25.58-19.48,4.35,1.83,7.17,5.4,9.54,9.35,.62,1.02,.22,1.87-.24,2.74-1.25,2.39-1.41,4.94-1.02,7.52,.22,1.45,.8,2.84,2.64,2.78,1.91-.06,2.53-1.41,2.71-3.03,.23-2.08-.09-4.15-1.1-5.95-1.32-2.35-.81-4.27,.63-6.32,4.54-6.47,10.44-10.5,18.55-10.71,6.43-.41,10.88,3.26,14.62,7.59,6.19,7.15,8.09,18.13,3.17,27.04Z"/>
      <path class="cls-1" d="M295.11,43.26c-3.65-4.13-8.64-5.41-13.65-5.69-8.88-.49-17.7,0-26.29,3.04-6.69,2.38-12.37,.09-16.22-5.73-1.36-2.06-3.05-3.87-5.45-4.43-6.81-1.58-20.19,4.74-23.95,10.93-3.79,6.25-3.96,13.37-5.09,20.25-2.21,13.43-4.45,26.83-12.7,38.25-.58,.81-.79,2.34-2.12,1.99-1.33-.35-1.78-1.75-1.7-3.04,.27-4.29,.89-8.48,4.75-11.28,.13-.5-.03-.7-.55-.55-3.92,2.66-8.37,4.54-11.74,8,.2,.2,.4,.4,.6,.6h0c1.66-.84,2.74-2.52,4.61-3.15,.45,1.25-.14,2.1-1.02,2.79-1.74,1.36-3.46,2.77-5.29,4.01-1.77,1.2-3.61,1.82-5.58,.13-1.91-1.63-1.3-3.36-.68-5.29,.87-2.73,1.85-5.46,1.83-8.39-1.18,2.72-1.95,5.58-3.71,8.85-3.22-5.47,.77-10.29-.15-15.03-.58,1.09-.56,2.37-.92,3.53-.22,.69,.02,2.16-1.21,1.96-.98-.16-1.39-1.27-1.26-2.36,.1-.79,.2-1.58,.31-2.37,.29-2.13,.21-4.24-.31-6.34-.17-.7-.23-1.17-1.16-.74-5.19,2.36-10.15,4.92-11.3,11.31-.26,1.45-.97,2.64-2.17,3.52,.24,.17,.49,.33,.73,.5,.89-.43,1.54-1.1,2.82-.46,1.72,.86,2.87-.24,3.28-1.97,.38-1.63,.1-3.32-.93-4.55-1.16-1.41-.52-2.22,.48-3.06,2.1-1.77,4.54-2.97,7.09-4.17,.51,1.88,.38,3.64,.23,5.4-.21,2.52-1.06,5.19,1.9,6.86,.56,.32,.26,.99,.12,1.47-.8,2.8-.32,5.24,1.89,7.26,.63,.58,.61,1.39,.78,2.17,.64,3.02,3.9,4.92,6.44,3.59,3.21-1.67,6.38-3.48,8.59-6.51,.85-1.25-.5-3.53,2.06-4.1-.04,1.92-1.14,3.45-1.63,5.16,0,0,0,0,0,0-.01,2.36-.69,4.85,1.34,6.8,1.05,1.01,2.45,1.78,3.33,.14,2.73-5.06,6.27-9.65,8.29-15.13,3.47-9.41,4.6-19.29,6.23-29.07,.83-4.99,1.17-10.13,3.61-14.66,3.73-6.93,10.22-10.08,17.52-11.79,6.15-1.43,8.79-.22,11.82,5.27,.99,1.8,2.27,3.22,4.14,3.94,4.01,1.54,8.38,1.94,12.29,.58,8.43-2.95,17.06-3.48,25.75-2.99,4.62,.26,9.33,1.28,12.8,5.07,1.76,1.91,3.86,3.42,6.57,3.77v-1.07c-2.18-.42-4-1.56-5.43-3.18Zm-136.16,42.25c-.23,1.02-.79,1.82-2.06,1.56-1.38-.28-1-1.2-.73-2.06,.38-1.23,.79-2.46,1.26-3.91,1.26,1.51,1.89,2.83,1.53,4.41Z"/>
    </g>
  </g>
</svg>