<?xml version="1.0" encoding="UTF-8"?>
<svg id="_Слой_2" data-name="Слой 2" xmlns="http://www.w3.org/2000/svg" viewBox="0 0 172.52 504.21">
  <defs>
    <style>
      .cls-1 {
        fill: #b6d0ba;
      }
    </style>
  </defs>
  <g id="Layer_1" data-name="Layer 1">
    <path class="cls-1" d="M170.76,331.01c-1.13-9.61-2.66-19.15-4.8-28.58-.79-3.48-1.67-6.93-3.26-10.16-.84-1.71-1.88-3.29-3.64-4.15-.87-.42-1.08-.93-1.01-1.83,.31-4.36-.05-8.7-.54-13.02-.94-8.23-2.42-16.37-4.28-24.44-1.94-8.42-4.21-16.76-7.57-24.75-2.21-5.27-4.99-10.2-8.84-14.48-2.53-2.81-5.38-5.22-8.86-6.8-2.11-.96-4.26-1.35-6.45-.16-.1-.21-.21-.37-.24-.54-.1-.47-.19-.95-.26-1.43-1.07-7.2-2.76-14.23-5.74-20.9-.54-1.21-1.02-2.45-1.29-3.76-.33-1.58,.11-2.86,1.25-3.94,.93-.88,2.03-1.51,3.12-2.17,.86-.52,1.74-.72,2.75-.65,2.54,.17,5.08,.09,7.6-.28,3.35-.49,6.48-1.49,8.91-4.03,.81-.84,1.48-1.77,1.79-2.9,.5-1.81-.42-2.83-2.28-2.58-1.34,.18-2.54,.78-3.74,1.33-3.85,1.76-7.74,3.43-11.5,5.34-1.91,.97-3.71,1.08-5.75,.68-3.15-.62-5.43-2.16-6.7-5.18-.79-1.89-1.69-3.74-2.74-5.52-1.91-3.24-4.41-5.91-7.76-7.68-7.81-4.13-18.72-3.89-26.27,2.91-.38,.34-.65,.88-1.35,.88,.02-.25-.01-.5,.05-.72,1.41-4.7,3.33-9.19,5.61-13.54,.34-.66,.86-.97,1.49-1.21,2.64-1.04,5.29-2.06,8.01-2.88,3.73-1.12,7.52-1.8,11.43-1.57,1.83,.11,3.54,.51,5.14,1.5,2.67,1.65,5.47,3.09,8.32,4.43,1,.47,1.88,1.06,2.71,1.78,3.11,2.69,6.05,5.57,9.03,8.4,2.41,2.29,4.83,4.57,7.53,6.53,2.07,1.5,4.27,2.75,6.79,3.33,1.61,.37,3.24,.47,4.81-.19,2.23-.93,3.02-3.02,2.03-5.23-.35-.78-.87-1.45-1.46-2.06-1.28-1.32-2.8-2.29-4.41-3.14-1.93-1.01-3.93-1.86-5.95-2.66-5.61-2.24-11.29-4.32-16.8-6.8-1.16-.52-2.25-1.14-3.27-1.92-2.95-2.25-6.16-4.04-9.76-5.04-.46-.13-.9-.35-1.31-.6-4.3-2.58-8.46-5.39-12.52-8.34-1.05-.77-1.05-.8-.27-1.8,1.79-2.29,3.68-4.48,5.65-6.62,6.26-6.83,13.15-13,20.03-19.18,6.02-5.42,12.08-10.8,17.64-16.7,5.96-6.32,11.24-13.13,15.04-21,2.52-5.22,4.26-10.67,4.53-16.49,.4-8.66-2.15-16.46-7.24-23.43-5.11-7-11.92-11.35-20.51-12.85-7.47-1.31-14.81-.54-22.06,1.44-3.88,1.05-7.56,2.56-10.78,5.01-1.05,.8-1.99,1.72-3.01,2.61-.2-.21-.38-.37-.53-.56-3.66-4.54-8.32-7.7-13.73-9.76C65.22-.18,56.75-1.05,48.11,1.45c-8.53,2.47-14.45,8.1-18.43,15.84-4.96,9.63-6.15,19.87-4.63,30.5,1.13,7.95,4.05,15.26,8.14,22.14,5.23,8.79,11.78,16.52,18.92,23.78,9.69,9.85,20.3,18.63,31.29,26.98,.52,.39,1.17,.66,1.48,1.38-.33,.47-.67,.97-1.02,1.45-2.53,3.47-4.91,7.05-6.98,10.81-.56,1.01-1.28,1.63-2.35,2.08-9.91,4.18-19.86,8.26-29.51,13.02-4.5,2.22-8.89,4.64-13.06,7.44-5.55,3.73-9.23,8.77-11.08,15.19-.82,2.85-1.58,5.7-2.21,8.6-3.49,16.18-6.98,32.35-10.45,48.53-2.5,11.63-4.98,23.27-7.47,34.91-1.34,6.25-.88,12.36,1.44,18.34,1.25,3.21,2.56,6.39,3.98,9.53,7.41,16.35,15.36,32.43,22.91,48.71,6.36,13.71,12.47,27.51,17.41,41.81,3.13,9.08,5.76,18.32,9.26,27.28,1.19,3.05,1.64,6.3,1.83,9.58,.3,5.03-.01,10.04-.53,15.02-1.42,13.59-3.64,27.06-5.9,40.52-1.39,8.28-2.82,16.55-4.25,24.83-.12,.72-.4,1.58,.61,1.78,1.04,.2,1.08-.76,1.21-1.44,.53-2.91,1.02-5.83,1.52-8.75,2.22-12.92,4.46-25.83,6.36-38.8,1.33-9.09,2.6-18.19,2.95-27.38,.24-6.41-.5-12.66-2.96-18.65-1.15-2.79-2.21-5.62-3.08-8.52-5.31-17.55-11.91-34.6-19.57-51.26-7.28-15.81-14.88-31.46-22.24-47.23-2.86-6.13-5.79-12.24-8.05-18.63-1.67-4.71-2.15-9.51-1.36-14.46,.47-2.99,1.08-5.94,1.72-8.89,4.91-22.79,9.81-45.58,14.74-68.37,1.2-5.55,2.33-11.11,3.95-16.56,1.82-6.11,5.34-10.89,10.67-14.39,3.49-2.3,7.11-4.35,10.83-6.24,9.5-4.81,19.35-8.83,29.12-13.01,.3-.13,.61-.44,1.01-.19,.1,.32-.09,.57-.22,.83-2.5,5.12-4.5,10.43-5.65,16.02-.11,.55-.36,1.02-.66,1.47-2.74,4.11-4.63,8.6-6,13.33-2.35,8.1-2.95,16.4-2.71,24.77,.21,7.25,.64,14.49,.92,21.74,.08,2.17,.03,4.35-.02,6.53-.03,1.21-.15,1.3-1.28,.98-5.08-1.45-10.97,2.74-12.51,6.56-1.33,3.29,.04,6.12,3.49,6.98,3.6,.9,6.55-.26,8.87-3.07,1.09-1.32,1.77-2.87,2.25-4.51,.14-.47,.33-.93,.56-1.57,1.28,1.68,1.84,3.4,2.31,5.14,1.01,3.7,1.35,7.48,1.42,11.3,.11,5.64-.5,11.23-1.19,16.81-1.34,10.85-3.2,21.64-4.01,32.55-.43,5.85-.71,11.71-.17,17.57,.2,2.17,.51,4.34,1.53,6.31,1.14,2.2,3.01,2.55,4.91,.95,.94-.79,1.63-1.78,2.24-2.83,1.31-2.27,2.19-4.7,2.91-7.21,2.35-8.21,2.98-16.63,3.12-25.11,.13-7.98-.4-15.95-1.03-23.9-.43-5.48-.97-10.95-1.53-16.42-.77-7.51-1.6-15.02-2.4-22.53-.72-6.79-1.42-13.58-1.95-20.39-.67-8.5-1.22-17-.52-25.53,.16-2,.33-4.02,.82-6.03,.6,.35,.51,.9,.63,1.34,.96,3.56,2.56,6.77,5.18,9.42,4.03,4.08,8.96,6.33,14.63,6.85,4.58,.42,8.76-.68,12.2-3.95,4.96-4.71,7.57-13.79,1.89-21.28-4.06-5.36-9.43-8.99-15.73-11.19-3.32-1.16-6.67-.87-9.87,.68-.41,.2-.77,.59-1.34,.48,.33-.66,.97-.9,1.51-1.23,4.02-2.45,8.41-3.34,13.05-2.86,7.12,.74,12.52,4.15,15.81,10.63,.55,1.08,1.05,2.18,1.59,3.26,.43,.87,.86,1.73,1.33,2.58,1.05,1.87,2.62,3.14,4.66,3.8,.9,.29,1.81,.54,2.92,.87-.74,.59-1.35,1.05-1.93,1.55-1.97,1.68-2.74,3.74-2.11,6.32,.39,1.6,1.02,3.1,1.67,4.59,3.1,7.1,4.62,14.6,5.67,22.23,.12,.87,0,1.65-.38,2.45-.89,1.86-1.39,3.86-1.8,5.88-1.54,7.6-1.49,15.27-.64,22.93,1.44,12.87,4.74,25.27,9.72,37.23,1.84,4.42,3.98,8.68,6.95,12.48,3.49,4.46,7.94,6.81,13.72,6.1,.98-.12,1.74,.13,2.47,.77,.91,.79,1.94,1.45,3.08,1.89,2.15,.82,3.67,.17,4.55-1.93,.21-.49,.38-1,.58-1.55,1.42,.37,2.12,1.44,2.78,2.52,1.17,1.93,1.88,4.06,2.47,6.21,2.6,9.58,4.15,19.37,5.46,29.19,1.04,7.73,1.68,15.5,2.02,23.29,.37,8.53,.21,17.05-.67,25.54-.89,8.61-2.65,17.06-4.81,25.44-2.51,9.71-5.5,19.28-8.35,28.89-4.39,14.8-6.88,29.89-7.39,45.31-.23,6.89-.37,13.78-.19,20.67,.05,2.05,.08,4.11,.12,6.16,.01,.65,.11,1.28,.94,1.25,.82-.03,.89-.67,.89-1.31,0-.48,0-.97,0-1.45-.07-6.23-.19-12.45-.08-18.68,.13-7.32,.5-14.62,1.33-21.89,1.16-10.17,3.44-20.11,6.3-29.93,2.95-10.09,6.12-20.11,8.69-30.31,3.04-12.05,4.95-24.26,5.19-36.71,.22-11.02-.42-21.99-1.71-32.93Zm-33.13-169.79c-.29,1.38-1.06,2.21-1.91,2.97-1.57,1.41-3.44,2.19-5.48,2.64-1.95,.43-3.92,.58-6.01,.7,.82-.88,11.3-5.82,13.4-6.31Zm-17.89-19.05c.17,.02,.36,0,.52,.05,4.98,1.99,9.96,3.96,14.92,5.98,1.79,.73,3.49,1.63,5.04,2.81,.87,.66,1.67,1.39,2.21,2.36,.79,1.44,.34,2.62-1.22,3.12-1.12,.36-2.26,.25-3.39-.03-2.2-.54-4.14-1.64-5.96-2.94-2.36-1.68-4.48-3.66-6.59-5.64-1.92-1.81-3.82-3.64-5.73-5.47,.07-.08,.14-.17,.21-.25ZM86.96,19.38c.09-.47,.25-.93,.41-1.38,.09-.27,.25-.53,.36-.77,.41,.05,.55,.33,.69,.59,2.47,4.45,3.81,9.21,3.87,14.32,0,.91-.12,1.81-.45,2.66-.28,.71-.66,.79-1.22,.27-.35-.32-.67-.7-.91-1.11-2.62-4.53-3.74-9.36-2.75-14.57ZM48.14,86.77c-5.11-5.67-9.77-11.68-13.64-18.27-4.5-7.67-7.36-15.87-8.07-24.76-.11-1.32-.01-2.66-.01-3.98-.06-8.69,1.81-16.9,6.49-24.33,5.08-8.06,12.4-12.5,21.89-13.34,8.52-.75,16.44,1.13,23.78,5.49,2.88,1.72,5.34,3.95,7.41,6.59,.38,.49,.68,.91,.33,1.62-2.07,4.12-1.89,8.41-.85,12.74,.5,2.06,1.24,4.04,2.3,5.89,.46,.79,.97,1.53,1.67,2.13,1.66,1.42,3.36,1,4.15-1.06,.39-1.02,.54-2.1,.54-3.2,.02-5.57-1.48-10.73-4.18-15.57-1.03-1.84-1.04-1.84,.48-3.28,1.5-1.43,3.2-2.6,5.07-3.46,8.62-3.97,17.66-5.4,27.04-4.01,10.98,1.63,18.56,7.99,23.43,17.74,4.67,9.37,4.68,18.95,.91,28.62-2.44,6.25-5.98,11.85-10.09,17.11-4.9,6.26-10.58,11.77-16.4,17.14-6.97,6.44-14.18,12.61-20.98,19.24-4.38,4.27-8.53,8.73-12.35,13.51-.87,1.09-.9,1.1-1.97,.29-13.18-9.97-25.84-20.53-36.94-32.83Zm31.31,46.8c1.94-3.27,4.05-6.44,6.32-9.49,.76-1.02,.79-1.02,1.84-.29,3.02,2.09,6.03,4.19,9.44,6.56-3.35,.15-6.28,.46-9.16,1.22-2.9,.76-5.69,1.87-8.51,2.77-.2-.37-.06-.57,.06-.77Zm-20.21,95.41c-.4,1.58-.98,3.1-1.95,4.44-1.36,1.87-3.18,2.89-5.51,2.98-1.53-.13-3.1-.33-3.91-1.82-.83-1.52-.13-2.95,.78-4.2,1.62-2.23,3.8-3.67,6.49-4.27,.64-.14,1.32-.16,1.97-.11,2.24,.18,2.68,.79,2.13,2.97Zm8.2-66.05c-1.98,6.1-2.49,12.42-2.6,18.78-.15,8.17,.53,16.3,1.25,24.43,.78,8.85,1.8,17.67,2.7,26.5,.79,7.75,1.65,15.5,2.36,23.26,.75,8.18,1.32,16.38,1.41,24.6,.08,7.5-.28,14.98-1.65,22.37-.76,4.11-1.77,8.15-3.67,11.9-.55,1.08-1.15,2.13-2.03,2.98-1.17,1.13-1.94,.98-2.58-.54-.75-1.81-.94-3.75-1.09-5.67-.53-6.77-.15-13.53,.49-20.27,.92-9.68,2.5-19.28,3.71-28.93,.79-6.3,1.44-12.61,1.15-18.98-.17-3.75-.6-7.47-1.75-11.06-.65-2.03-1.5-3.96-2.93-5.57-.38-.43-.57-.85-.53-1.46,.5-6.47-.02-12.92-.33-19.38-.34-7.12-.73-14.25-.17-21.37,.56-7.21,2.03-14.22,5.07-20.84,.32-.7,.55-1.46,1.26-2.14,.2,.59,.07,.99-.06,1.39Zm9.03-9.33c3.15-1.9,6.48-2.34,9.9-1.08,5.54,2.03,10.31,5.25,14.04,9.88,2.06,2.55,3.33,5.45,3.26,8.36-.05,7.81-5.15,13.66-12.29,14.46-3.19,.36-6.26-.31-9.2-1.51-9.55-3.9-12.84-11.92-12.7-20.38,0-.35,.06-.73,.19-1.06,1.38-3.58,3.42-6.63,6.79-8.66Zm69.6,135.13c-3.65,.33-6.68-.9-9.29-3.31-1.79-1.66-3.17-3.64-4.41-5.72-3.57-6.01-6.03-12.49-8.14-19.12-2.7-8.48-4.72-17.11-5.65-25.96-.84-7.9-.94-15.79,.89-23.6,.13-.57,.18-1.17,.77-1.76,.38,3.38,.73,6.61,1.1,9.84,1.28,11.4,2.55,22.8,5.39,33.95,3.38,13.24,9.39,25.05,19.01,34.89,.16,.16,.37,.31,.32,.79Zm6.43,2.41c-.31-.18-.6-.39-.9-.6-.15-.11-.25-.25-.21-.58,1.37-.37,2.77-.73,4.28-.62-.28,2.44-1.18,2.93-3.17,1.8Zm3.71-4.78c.01,.67-.25,.97-.93,1.03-1.75,.16-3.47,.47-5.17,.92-.99,.26-1.58-.27-2.2-.87-5.05-4.87-9.09-10.5-12.4-16.66-4.07-7.57-6.63-15.67-8.33-24.06-1.69-8.36-2.77-16.8-3.7-25.27-.53-4.86-1.09-9.73-1.66-14.58-.25-2.1,.74-3.19,2.86-3.06,1.11,.07,2.11,.51,3.08,1,3.19,1.59,5.8,3.91,8.11,6.58,3.64,4.21,6.26,9.02,8.35,14.14,3.57,8.76,5.92,17.88,7.92,27.1,1.76,8.15,3.15,16.37,3.89,24.69,.14,1.56,.17,3.14,.25,4.71-.03,0-.05,0-.08,0,0,1.45-.02,2.9,0,4.35Z"/>
  </g>
</svg>