<?xml version="1.0" encoding="UTF-8"?>
<svg id="_Слой_2" data-name="Слой 2" xmlns="http://www.w3.org/2000/svg" viewBox="0 0 371.62 69.72">
  <defs>
    <style>
      .cls-1 {
        fill: #514d4b;
      }
    </style>
  </defs>
  <g id="Layer_1" data-name="Layer 1">
    <g>
      <path class="cls-1" d="M32.97,69.72c-.93-.16-1.48-.83-1.66-2.01-.2-3.45,4.7-11.5,14.71-24.14l1-1.65-1.01-.37c-7.69-2.88-12.97-4.57-15.84-5.05-.34,0-3.19,1.42-8.56,4.24-7.13,4.02-12.82,8.37-17.08,13.04-2.34,2.63-3.5,4.62-3.49,5.97,0,.17,.13,.04,.38-.38l.12-.51,.13,.5-.37,.89c-.25,.59-.58,.68-1.01,.26-.51-.5-.35-1.56,.48-3.16,1.49-2.79,3.37-5.25,5.62-7.38,3.09-2.89,7.28-5.92,12.56-9.08,.92-.51,2.47-1.3,4.66-2.38,2.18-1.07,3.4-1.69,3.65-1.86l.75-.51-.63-.12c-2.03-.66-4.68-.97-7.97-.94-6.15,.39-11.19,2.03-15.12,4.93-1.59,1.19-2.51,2.34-2.75,3.44,0,.59,.77,.88,2.28,.87,.17,0,.25,.04,.25,.12-.33,.34-1.01,.43-2.02,.27-.42-.16-.68-.33-.76-.5-.77-1.59,.48-3.54,3.74-5.85,3.69-2.39,8.39-3.73,14.12-4.04,3.37-.03,6.32,.28,8.85,.94l1.39,.24,10.7-5.02c14.94-6.95,23.37-10.98,25.3-12.1,1.09-.6,1.93-1.28,2.51-2.04,2.92-3.31,6.85-6.84,11.79-10.59,2.17-1.87,4.02-3.11,5.53-3.71,.59-.17,1.14-.14,1.64,.11,.51,.25,.72,.58,.64,1,0,.93-1.96,2.88-5.89,5.86-4.85,3.75-7.83,5.92-8.92,6.52-.84,.34-1.55,.81-2.14,1.41-2.51,2.21-6.97,7.39-13.39,15.53-4.92,5.94-7.38,9.12-7.37,9.54,10.14,4.21,16.01,5.59,17.6,4.15,.58-.51,.96-.68,1.13-.51,.25,.17,0,.55-.75,1.14-1.34,.86-3.11,1.04-5.3,.55-2.2-.49-6.59-2.05-13.18-4.69l-1,1.27c-6.92,8.57-11.62,15.22-14.11,19.96-1.41,2.79-1.81,4.52-1.22,5.19,.42,.42,.42,.63,0,.63Zm14.67-28.56c.42-.42,.88-.97,1.38-1.66,1.67-2.04,4.04-5.04,7.13-9.03,3.08-3.99,5.21-6.66,6.38-8.02l1.75-2.16-2.01,.9c-3.86,1.97-11.58,5.66-23.16,11.07l-6.8,3.09-1.13,.64c.17,0,.42,.04,.76,.12,2.19,.57,4.6,1.27,7.22,2.09,2.62,.82,4.69,1.52,6.21,2.1l2.28,.87Zm27.31-28.54l.88-.64c3.35-2.38,6.53-5.11,9.53-8.17l.12-.25c-.34,.17-1.09,.73-2.26,1.66-1.09,.85-3.47,2.94-7.15,6.25l-1.13,1.15Z"/>
      <path class="cls-1" d="M72.54,55.86c-.42-.16-.72-.37-.89-.62-.17-.25-.26-.76-.27-1.51,.15-1.69,1.61-4.14,4.36-7.37l1-1.14-.75,.64c-1.34,1.02-3.35,2.39-6.03,4.1-2.6,1.46-4.2,1.85-4.79,1.18-.68-.83-.52-1.97,.48-3.42,1.75-2.37,2.76-2.97,3.02-1.79,.09,.34-.25,.89-1,1.65-.33,.34-.67,.76-1,1.27-.33,.51-.58,.93-.75,1.27-.17,.34-.21,.55-.12,.63,.34,.33,1.72-.22,4.16-1.68,3.6-2.05,6.7-4.35,9.29-6.9,.92-.77,1.42-1.15,1.51-1.15,1.01-.09,1.52,.11,1.52,.62,0,.34-1.04,1.48-3.13,3.44-3.01,3.14-4.97,5.48-5.88,7-1.16,1.95-1.32,3-.48,3.16,.93,.16,2.12-.15,3.59-.92,1.47-.77,4-2.39,7.6-4.87,.25-.17,.65-.45,1.19-.83,.54-.38,1.02-.72,1.45-1.02,.42-.3,.79-.58,1.13-.83l1.63-1.15c.17-.08,.31-.07,.44,.06,.13,.12,.11,.27-.06,.44l-.63,.51-1.88,1.41c-6.95,4.86-11.27,7.47-12.95,7.82-1.01,.18-1.6,.18-1.77,.01Z"/>
      <path class="cls-1" d="M86.03,52.59c-1.1-1.08-1.03-2.52,.22-4.3,.91-1.61,2.25-2.8,4.01-3.57,1.01-.43,1.72-.43,2.15-.02,.34,.25,.4,.67,.2,1.26-.21,.59-.6,1.1-1.19,1.53-1.17,.85-2.39,1.37-3.65,1.55-.34,0-.63,.22-.88,.64-1,1.78-.53,2.79,1.42,3.02,3.79-.03,8.49-2.05,14.1-6.06l1.51-1.02c.08-.08,.21-.08,.38,0,.17,.08,.21,.21,.13,.38-3.1,2.55-6.62,4.61-10.56,6.16-3.95,1.55-6.56,1.7-7.83,.45Zm1.86-4.31c.59,0,1.43-.35,2.52-1.03,.75-.51,1.25-1.06,1.5-1.66,.08-.25,0-.38-.26-.38l-1.38,.77c-1.68,1.28-2.47,2.04-2.38,2.3Z"/>
      <path class="cls-1" d="M108.03,53.92c-1.77-.57-2.09-2.76-.94-6.56l.24-1.01c-.17-.17-.71,.13-1.63,.9-.67,.51-1.55,1.3-2.63,2.36-1.09,1.06-1.71,1.76-1.88,2.1-.25,.42-.37,.72-.37,.89,0,.34-.17,.34-.51,0-.68-.67,.27-2.78,2.85-6.34,1.17-1.61,2.33-2.93,3.5-3.95,.67-.59,1.17-.68,1.51-.27,.26,.33-.16,1.1-1.24,2.29-1.09,1.02-1.92,2-2.5,2.93,.17-.08,.33-.21,.5-.38,3.26-2.81,6.53-4.81,9.8-6.02,.92-.34,1.64-.39,2.15-.14,.51,.25,.72,.71,.64,1.38-.08,.51-.56,1.42-1.43,2.73-.87,1.31-1.6,2.22-2.19,2.74-.58,.6-1,.77-1.26,.52-.09-.08,.04-.25,.38-.51,.42-.34,1.25-1.4,2.5-3.18,.83-1.52,1.24-2.45,1.24-2.79,0-.76-1.69-.24-5.04,1.56-.08,.09-.21,.17-.38,.26-2.1,1.2-3.31,1.97-3.64,2.31,0,.17,.04,.3,.13,.38,.25,.25,.18,.97-.23,2.15-.16,.68-.24,1.52-.23,2.53-.07,1.77,.48,2.65,1.67,2.64,1.68-.01,4.24-1.21,7.68-3.6,.67-.43,1.93-1.41,3.77-2.94l1.76-1.28,.38-.26c.17-.08,.29-.09,.38,0v.51s-1,.77-1,.77c-4.1,3.24-7.16,5.37-9.17,6.4-2.01,1.03-3.61,1.34-4.79,.92Z"/>
      <path class="cls-1" d="M119.9,52.68c-.94-.75-1.24-1.71-.91-2.9,.41-1.18,1.26-2.45,2.56-3.81,1.29-1.36,2.61-2.34,3.96-2.94,.75-.34,1.43-.45,2.02-.33,.59,.12,.89,.39,.89,.81,0,.68-.49,1.57-1.49,2.67-1.25,1.11-2.09,1.66-2.51,1.66-.59,0-.51-.25,.25-.76,.92-.6,1.71-1.3,2.38-2.11,.67-.81,.87-1.33,.62-1.58s-1.05,.09-2.39,1.03c-1.76,1.11-3.16,2.45-4.2,4.02-1.04,1.57-1.35,2.73-.92,3.48,.34,.76,1.61,1,3.8,.73,2.19-.27,4.54-1.01,7.06-2.21,2.27-1.11,4.49-2.48,6.66-4.1,.25-.17,.58-.38,1-.64l.63-.51c.25,0,.42,.12,.51,.38l-.63,.51c-1.25,1.02-3.01,2.22-5.28,3.58l-2.77,1.41c-5.29,2.66-9.03,3.2-11.23,1.61Z"/>
      <path class="cls-1" d="M135.82,52.16c-1.1-1.08-1.03-2.52,.22-4.3,.91-1.61,2.25-2.8,4.01-3.57,1.01-.43,1.72-.44,2.15-.02,.34,.25,.4,.67,.2,1.26-.21,.59-.6,1.1-1.19,1.53-1.17,.85-2.39,1.37-3.65,1.55-.34,0-.63,.22-.88,.64-1,1.78-.53,2.79,1.42,3.02,3.79-.03,8.49-2.05,14.1-6.06l1.51-1.02c.08-.08,.21-.08,.38,0,.17,.08,.21,.21,.13,.38-3.1,2.55-6.62,4.61-10.56,6.16-3.95,1.55-6.56,1.7-7.83,.45Zm1.86-4.31c.59,0,1.43-.35,2.52-1.03,.75-.51,1.25-1.06,1.5-1.66,.08-.25,0-.38-.26-.38l-1.38,.77c-1.68,1.28-2.47,2.04-2.38,2.3Z"/>
      <path class="cls-1" d="M155.33,58.69c1.61,.91,3.8,.71,6.57-.62s5.28-3.14,7.54-5.44c.83-.85,1.75-1.99,2.75-3.44,.33-.51,.46-.84,.37-1.01,0-.08,.04-.13,.12-.13,.84,0,.43,1.09-1.24,3.3-2.42,3.14-5.45,5.57-9.1,7.28-3.65,1.72-6.33,1.7-8.02-.06-.51-.67-.83-1.36-.97-2.08-.13-.71,.03-1.52,.49-2.41,.45-.89,.79-1.5,1-1.84,.21-.34,.69-1.02,1.43-2.03l.87-1.27-.12,.13c-.08,0-.23,.07-.44,.19-.21,.13-.4,.24-.57,.32-2.52,1.37-4.07,2.06-4.66,2.06-.34,0-.59-.08-.76-.25-.6-.84-.06-2.32,1.6-4.44,1.75-2.46,3.12-3.9,4.13-4.33l.38-.13c.34,0,.59,.25,.76,.75,.17,.25-.41,1.02-1.75,2.29-.67,.6-1.36,1.3-2.07,2.1-.71,.81-1.27,1.49-1.69,2.04-.42,.55-.58,.87-.5,.95,0,.08,.36-.02,1.07-.32,.71-.3,1.55-.71,2.52-1.22s1.78-.98,2.45-1.41c.75-.51,1.72-1.28,2.89-2.3,1.34-1.28,2.13-1.79,2.39-1.54,.34,.25,.38,.59,.14,1.01-.25,.42-1,1.23-2.25,2.42-1.51,1.36-2.88,2.89-4.13,4.58-2.58,3.56-2.98,5.84-1.21,6.83Zm8.56-18.65c-1.1,0-1.9-.28-2.41-.86-.77-.92-.86-1.68-.27-2.27,.25-.25,.48-.36,.69-.32,.21,.04,.4,.12,.57,.25,.17,.13,.21,.27,.13,.44-.33,.76-.33,1.31,.01,1.64,.34,.33,.97,.46,1.9,.36,1.18-.18,1.77-.39,1.76-.65,0-.08,.04-.13,.12-.13,.17,0,.25,.12,.26,.38,0,.17-.04,.3-.12,.38-.5,.51-1.38,.77-2.65,.78Z"/>
      <path class="cls-1" d="M194.63,58.36c1.61,.91,3.8,.71,6.57-.62,2.77-1.33,5.28-3.14,7.54-5.44,.83-.85,1.75-1.99,2.75-3.44,.33-.51,.46-.84,.37-1.01,0-.08,.04-.13,.12-.13,.84,0,.43,1.09-1.24,3.3-2.42,3.14-5.45,5.57-9.1,7.28-3.65,1.72-6.33,1.7-8.03-.06-.51-.67-.83-1.36-.97-2.08-.13-.71,.03-1.52,.49-2.41,.45-.89,.79-1.5,1-1.84,.21-.34,.69-1.02,1.44-2.03l.87-1.27-.12,.13c-.08,0-.23,.07-.44,.19-.21,.13-.4,.24-.57,.32-2.52,1.37-4.07,2.06-4.66,2.06-.34,0-.59-.08-.76-.25-.6-.84-.06-2.32,1.6-4.44,1.75-2.46,3.13-3.9,4.13-4.33l.38-.13c.34,0,.59,.25,.76,.75,.17,.25-.41,1.02-1.75,2.29-.67,.6-1.36,1.3-2.07,2.1-.71,.81-1.27,1.49-1.69,2.04-.42,.55-.58,.87-.5,.95,0,.08,.36-.02,1.07-.32,.71-.3,1.55-.71,2.52-1.22,.96-.51,1.78-.98,2.45-1.41,.75-.51,1.72-1.28,2.89-2.3,1.34-1.28,2.13-1.79,2.39-1.54,.34,.25,.38,.59,.14,1.01-.25,.42-1,1.23-2.25,2.42-1.51,1.36-2.88,2.89-4.13,4.59-2.58,3.56-2.98,5.84-1.21,6.83Z"/>
      <path class="cls-1" d="M259.92,67.78c-.93-.16-1.48-.83-1.66-2.01-.2-3.45,4.7-11.5,14.71-24.14l1-1.65-1.01-.37c-7.69-2.88-12.97-4.57-15.84-5.05-.34,0-3.19,1.42-8.56,4.24-7.13,4.02-12.82,8.37-17.08,13.04-2.34,2.63-3.5,4.62-3.49,5.97,0,.17,.13,.04,.37-.38l.12-.51,.13,.5-.37,.89c-.25,.59-.58,.68-1.01,.26-.51-.5-.35-1.56,.48-3.16,1.49-2.79,3.37-5.25,5.62-7.38,3.09-2.89,7.28-5.92,12.56-9.08,.92-.51,2.47-1.3,4.66-2.38,2.18-1.07,3.4-1.69,3.65-1.86l.75-.51-.63-.12c-2.03-.66-4.68-.97-7.97-.94-6.15,.39-11.19,2.03-15.12,4.93-1.59,1.19-2.51,2.34-2.75,3.44,0,.59,.77,.88,2.28,.87,.17,0,.25,.04,.25,.12-.33,.34-1.01,.43-2.02,.27-.42-.16-.68-.33-.76-.5-.77-1.59,.48-3.54,3.74-5.85,3.69-2.39,8.39-3.74,14.12-4.04,3.37-.03,6.32,.28,8.85,.94l1.39,.24,10.7-5.02c14.94-6.95,23.37-10.98,25.3-12.1,1.09-.6,1.93-1.28,2.51-2.04,2.92-3.31,6.85-6.84,11.79-10.59,2.17-1.87,4.02-3.11,5.53-3.71,.59-.17,1.14-.14,1.64,.11,.51,.25,.72,.58,.64,1.01,0,.93-1.96,2.88-5.89,5.86-4.86,3.75-7.83,5.92-8.92,6.52-.84,.34-1.55,.82-2.14,1.41-2.51,2.21-6.97,7.39-13.39,15.53-4.92,5.94-7.38,9.12-7.37,9.54,10.14,4.21,16.01,5.59,17.6,4.15,.58-.51,.96-.68,1.13-.51,.25,.17,0,.55-.75,1.14-1.34,.86-3.11,1.04-5.3,.55-2.2-.49-6.59-2.05-13.18-4.69l-1,1.27c-6.92,8.57-11.62,15.22-14.11,19.96-1.41,2.79-1.82,4.52-1.22,5.19,.42,.42,.42,.63,0,.63Zm14.67-28.56c.42-.42,.88-.98,1.38-1.66,1.67-2.04,4.04-5.04,7.13-9.03,3.08-3.99,5.21-6.66,6.38-8.02l1.75-2.16-2.01,.9c-3.86,1.97-11.58,5.66-23.16,11.07l-6.8,3.09-1.13,.64c.17,0,.42,.04,.76,.12,2.2,.57,4.6,1.27,7.22,2.09,2.62,.82,4.69,1.52,6.21,2.1l2.28,.87Zm27.31-28.54l.88-.64c3.35-2.39,6.53-5.11,9.54-8.17l.12-.25c-.34,.17-1.09,.73-2.26,1.66-1.09,.85-3.47,2.94-7.15,6.25l-1.13,1.15Z"/>
      <path class="cls-1" d="M299.49,53.93c-.42-.17-.72-.37-.89-.62-.17-.25-.26-.76-.27-1.51,.15-1.69,1.61-4.14,4.36-7.37l1-1.15-.75,.64c-1.34,1.02-3.35,2.39-6.03,4.1-2.6,1.46-4.2,1.85-4.79,1.18-.68-.83-.52-1.97,.48-3.42,1.75-2.37,2.76-2.97,3.02-1.79,.09,.34-.25,.89-1,1.65-.33,.34-.67,.76-1,1.27-.33,.51-.58,.93-.75,1.27-.17,.34-.21,.55-.12,.63,.34,.33,1.72-.22,4.16-1.68,3.6-2.05,6.7-4.35,9.29-6.9,.92-.77,1.42-1.15,1.51-1.15,1.01-.09,1.52,.11,1.52,.62,0,.34-1.04,1.48-3.13,3.44-3.01,3.14-4.97,5.48-5.88,7-1.16,1.95-1.32,3-.48,3.16,.93,.16,2.12-.14,3.59-.92,1.47-.77,4-2.39,7.6-4.87,.25-.17,.65-.45,1.19-.83,.54-.38,1.02-.72,1.45-1.02,.42-.3,.79-.58,1.13-.83l1.63-1.15c.17-.08,.31-.07,.44,.06,.13,.12,.11,.27-.06,.44l-.63,.51-1.88,1.41c-6.95,4.86-11.27,7.47-12.95,7.82-1.01,.18-1.6,.18-1.77,.02Z"/>
      <path class="cls-1" d="M312.98,50.65c-1.1-1.09-1.03-2.52,.22-4.3,.91-1.61,2.25-2.8,4.01-3.57,1.01-.43,1.72-.43,2.15-.02,.34,.25,.4,.67,.2,1.26-.21,.59-.6,1.1-1.19,1.53-1.17,.85-2.39,1.37-3.65,1.55-.34,0-.63,.22-.88,.64-1,1.78-.53,2.79,1.42,3.02,3.79-.03,8.49-2.05,14.1-6.06l1.51-1.02c.08-.08,.21-.08,.38,0,.17,.08,.21,.21,.13,.38-3.1,2.55-6.62,4.61-10.56,6.16-3.95,1.55-6.56,1.7-7.83,.45Zm1.86-4.31c.59,0,1.43-.35,2.52-1.03,.75-.51,1.25-1.06,1.5-1.66,.08-.25,0-.38-.26-.38l-1.38,.77c-1.68,1.28-2.47,2.04-2.38,2.3Zm4.11-6.86c0-.59,.33-1.1,1-1.53,.17-.08,.33-.09,.51,0,.42,.17,.42,.38,0,.63l-.75,.64c-.5,.51-.75,.6-.76,.26Zm3.04,1.24c0-.59,.37-1.1,1.12-1.53,.17-.08,.33-.09,.51,0,.34,.08,.34,.29,0,.63l-.75,.64c-.58,.6-.88,.68-.88,.26Z"/>
      <path class="cls-1" d="M336.5,52.09c-2.02,.61-3.37,.37-4.05-.72-.51-1.01-.02-2.53,1.48-4.56,.5-.68,.71-1.02,.62-1.02-.34,.17-1.01,.26-2.02,.27l-1.77,.14-1.88,2.04c-1.75,2.04-2.58,3.23-2.5,3.56,.09,.25,0,.38-.25,.38l-.25-.25c-.17-.08-.29-.17-.38-.25-.17-.25-.21-.59-.13-1.01l.87-1.65c.5-.68,1.77-2.14,3.82-4.39,2.04-2.25,3.4-3.71,4.07-4.39,.92-.77,1.51-1.02,1.76-.77,.59,.42-.28,1.86-2.62,4.32l-2.01,1.91,1.39-.14c1.6-.1,2.73-.44,3.4-1.04,1.75-1.7,2.89-2.3,3.4-1.8,.42,.33,.22,.84-.62,1.52-.92,.77-1.94,1.77-3.07,3-1.13,1.23-1.86,2.14-2.19,2.74-.41,1.27-.13,1.9,.84,1.89,.97,0,2.04-.31,3.21-.91,2.18-.86,5.41-2.83,9.68-5.9l2.39-1.66c.17-.08,.29-.08,.38,0,.08,.08,.08,.21,0,.38-.25,.34-2.26,1.83-6.03,4.48-2.93,2.13-5.45,3.42-7.55,3.86Z"/>
      <path class="cls-1" d="M350.13,50.46c-.18-.76-.06-1.64,.35-2.66l.25-.63c0-.08-.32,.09-.94,.51-.63,.43-1.34,.88-2.14,1.35-.8,.47-1.32,.66-1.57,.58-.59-.08-.93-.29-1.02-.62-.17-.42-.17-.84-.01-1.26,.41-1.01,1.41-2.12,3.01-3.31,1.59-1.19,2.8-1.88,3.65-2.05,1.09-.26,1.85-.06,2.28,.61l.26,.25c.17-.08,.36-.09,.57,0,.21,.08,.32,.17,.32,.25,0,.08-.21,.42-.62,1.02-1.75,1.87-2.84,3.39-3.25,4.58-.49,1.61-.17,2.51,.97,2.71,1.14,.2,2.63-.13,4.48-.99,2.18-.86,5.87-3.21,11.06-7.05,2.17-1.79,3.22-2.85,3.13-3.19,0-.08,.04-.13,.12-.13,1.18-.01,.6,.96-1.74,2.92-3.26,2.89-6.49,5.2-9.67,6.91-1.51,.86-2.94,1.5-4.28,1.93-1.34,.43-2.52,.53-3.54,.28-1.01-.24-1.57-.91-1.66-2.01Zm-2.55-3.01l-.5,.76c.17,0,.84-.39,2.01-1.16,3.02-1.63,4.44-2.86,4.26-3.7-.09-.42-.76-.25-2.02,.52-1.51,.94-2.76,2.13-3.76,3.57Z"/>
    </g>
  </g>
</svg>