<?xml version="1.0" encoding="utf-8"?>
<!-- Generator: Adobe Illustrator 26.0.1, SVG Export Plug-In . SVG Version: 6.00 Build 0)  -->
<svg version="1.1" id="Layer_1" xmlns="http://www.w3.org/2000/svg" xmlns:xlink="http://www.w3.org/1999/xlink" x="0px" y="0px"
	 viewBox="0 0 463.2 170.6" style="enable-background:new 0 0 463.2 170.6;" xml:space="preserve">
<style type="text/css">
	.st0{fill:#4A494A;}
</style>
<g>
	<g>
		<path class="st0" d="M89.6,32.4c1,7.6-1,16.8-6,27.4c-5,10.6-12.3,21.1-21.8,31.4C50.3,103.7,40.9,110,33.8,110h-0.9
			c-5.5,0-8.2-3.1-8-9.2c0.2-5.1,2-11.3,5.2-18.6c3.2-7.3,7.7-14.7,13.4-22.1c2.7-3.5,4.3-6.2,5-8.3c2.9-8.2,5.8-14.2,8.7-17.9
			c4.3-5.8,9.1-9.7,14.4-11.6c4.5-1.7,8.5-1.7,11.9,0.2C86.9,24.2,88.9,27.6,89.6,32.4z M88.2,40.8c0.8-6.2-0.3-9.8-3.3-10.8
			c-3-0.9-7.2,0.7-12.7,4.9c-7.4,5.3-14.5,12-21.2,20.1c-1.5,1.9-2.4,3.7-2.8,5.5C48,62.5,48.2,64,49,65l0.5,0.5h-0.3
			c-1.4,0-2.2-0.6-2.4-1.7l-0.7-2.8L43,65.2c-3.4,4.5-6.5,9.9-9.4,16.2c-2.9,6.3-4.8,12-5.6,17c-0.9,5,0,8.2,2.5,9.6
			c4.7,1.9,11.2-0.7,19.4-7.5c8.2-6.9,15.4-14.5,21.5-22.8C81.2,64.4,86.8,52.1,88.2,40.8z M70,25.3c-7.7,4.9-13.6,12.9-17.7,24.3
			c0.1-0.3,1.1-1.5,3-3.4s4.9-4.4,8.8-7.6c4-3.2,8.1-5.9,12.4-8.2c3.9-2.1,7.5-2.5,10.6-1.4c-1.3-3.4-3.5-5.4-6.8-6.1
			C77.2,22.2,73.7,23,70,25.3z"/>
		<path class="st0" d="M85.1,89.7c-0.5-0.7-0.5-1.6,0-2.8c0.3-1.2,1.6-2.9,3.6-5.2c1-1.3,2.1-2.2,3.1-2.8l1.7-1.2
			c0.6,0,0.9-0.2,0.9-0.5c0-0.1,0.3-0.2,0.9-0.2c0.5,0,0.9,0.1,1.4,0.3l1-1.7c3-5.7,4.9-10.3,5.7-14c1.4-6,2-11.3,1.7-15.8
			c-0.1-0.8-0.3-1.2-0.7-1.2c-1,0-4.3,1.1-9.9,3.3c-0.1,0-0.3,0.1-0.5,0.2l-0.9,0.3l0.3,0.2c0.7,0.3,0.5,0.7-0.7,1
			c-0.2,0-0.5,0.1-0.7,0.2c-1.2,0.3-1.9,0.3-2.3,0c-0.5-0.2-0.7-0.5-0.7-0.9c0-0.9,1.8-2.1,5.5-3.5c7.6-3.2,17.7-5.7,30.2-7.3
			c8.1-0.9,14-1.2,17.9-0.9c4.4,0.5,6.6,1.6,6.6,3.5c-0.1,0.8-0.8,1.6-1.9,2.4c-0.5,0.3-0.9,0.3-1.4,0l-0.5-0.3l1-1.2
			c0.7-0.7,1-1.2,1-1.4c-0.1-1-4-1.4-11.8-1c-9.6,0.7-18.3,2-26.2,4l-3.8,0.9l0.2,3.3c0,3.8-0.2,7.3-0.7,10.4
			c-0.9,5.2-1.6,8.4-2.1,9.7c-1.2,3.1-2.5,6.1-4.2,8.8c-3.2,5.8-6,9.6-8.2,11.4C88.3,90.3,86.4,90.9,85.1,89.7z M86.3,89.3
			c0.6,0.3,1.9-0.5,4-2.6c2.1-2.2,3.2-3.9,3.5-5c0.5-0.7,0.6-1.3,0.3-1.9v-0.5L92.4,81c-2,1.6-3.6,3.5-5,5.5
			C86.4,87.9,86.1,88.9,86.3,89.3z"/>
		<path class="st0" d="M68.6,139.4c-0.1,0.2-0.4,0.1-0.9-0.3l-0.5-0.2l1.6-2.4l16.6-27.2c14-22.2,24.3-37.4,30.9-45.6
			c0.8-0.9,1.4-1.3,1.7-1.2c0.3,0,0.5,0.1,0.5,0.2c0,0.6-2.1,3.9-6.2,9.9l-4.2,5.9l0.3,0.5l0.3,0.7l3.1-1.7c3-1.5,5.2-2.4,6.6-2.6
			c1.2,0,1.8,0.3,2.1,1c0.5,1.2-0.6,3.4-3.1,6.8l-2.3,2.6c4.4,1.7,9.8,0.8,16.1-2.8c2-1.2,4-2.5,6.1-4c0.2-0.2,0.4-0.3,0.6-0.2
			c0.2,0.1,0.2,0.3,0.1,0.5l-0.9,0.9c-2.5,2-4.7,3.4-6.4,4.2c-6,3.1-11.6,3.9-16.6,2.3l-1.6,1.7c-4.2,3.9-7,4.6-8.5,1.9
			c-0.6-1.2-0.6-2.7,0-4.5l0.2-0.9c-0.2,0.3-1.6,2.3-4.2,5.9c-5.9,8.1-12.5,18.3-19.9,30.7C73.3,132.6,69.4,138.6,68.6,139.4z
			 M105.7,90.7c0.9,0.2,2-0.2,3.3-1.2c0.3-0.2,0.8-0.6,1.5-1.2c0.6-0.6,1.2-1.1,1.6-1.6l0.5-0.9c-1.5-0.8-2.8-2.1-4-3.8
			c-0.1-0.3-0.5-0.3-1,0.2c-0.6,0.5-1.2,1.3-1.7,2.6C104.6,88.4,104.6,90.4,105.7,90.7z M113.5,85c0.1,0,0.4-0.3,1-0.9
			c0.5-0.6,1.1-1.3,1.8-2.2s1.2-1.6,1.6-2.2c0.7-0.9,1.2-1.7,1.4-2.4c0.2-0.6,0.3-0.9,0.2-1c-0.3-0.3-2.3,0.3-5.7,1.9
			c-2.8,1.5-4.2,2.5-4.2,3.1c0,0.3,0.5,1,1.5,2.1C112,84.5,112.8,85,113.5,85z"/>
		<path class="st0" d="M139.4,91.1c-0.8-0.5-1.2-1.3-1.2-2.6c0-1.3,0.2-2.5,0.7-3.6l0.3-0.9l-1,0.5c-0.6,0.5-1.1,0.8-1.6,1
			c-0.2,0.1-0.6,0.3-1.2,0.7c-0.6,0.3-1,0.6-1.4,0.9c-0.8,0.5-1.5,0.4-2.2-0.1c-0.6-0.5-0.8-1.3-0.4-2.3c0.5-1.2,1.7-2.5,3.7-4.2
			c2-1.6,3.8-2.7,5.5-3.1c1.4-0.3,2.4-0.1,2.9,0.9c0.2,0.3,0.4,0.5,0.5,0.3c0.6-0.2,1-0.1,1.2,0.3l-0.2,0.2
			c-0.1,0.2-0.2,0.4-0.3,0.6c-0.1,0.2-0.2,0.4-0.3,0.6c-2.3,2.3-3.8,4.4-4.5,6.2c-0.6,1.9-0.5,3.1,0.2,3.6c1,0.7,3.4,0.3,7.1-1.2
			c3.8-1.5,8.6-4.4,14.2-8.7c2-1.5,2.9-1.9,2.8-1.2c-0.1,0.5-1.7,1.8-4.8,4c-3.1,2.2-5.8,3.9-8.1,5.2c-1.5,0.8-3,1.5-4.5,2.1
			c-1.5,0.6-2.9,1-4.2,1.1C141.2,91.7,140.2,91.5,139.4,91.1z M134.7,84.3c-0.6,0.7-0.8,1-0.7,1c0.1,0,1.1-0.5,2.9-1.6
			c3.9-2.2,5.9-3.9,5.9-5c-0.2-0.7-1.2-0.5-2.8,0.7C138.1,80.7,136.3,82.3,134.7,84.3z"/>
		<path class="st0" d="M184.4,90.7c1.8,0.3,7.5-3.1,16.8-10.4c1.3-1,2.2-1.7,2.8-1.9c0.2-0.1,0.4-0.1,0.5,0.1c0.1,0.2,0.1,0.3,0,0.4
			c-0.2,0.2-1.2,1-2.9,2.4c-0.9,0.7-2.1,1.5-3.4,2.5c-1.3,1-2.4,1.8-3.1,2.3c-0.8,0.6-1.6,1.2-2.6,1.9c-1,0.7-1.8,1.2-2.3,1.6
			c-0.6,0.3-1.2,0.7-2,1.1c-0.8,0.4-1.4,0.6-1.8,0.7c-0.5,0.1-1,0.1-1.6,0.2c-0.6,0.1-1.1,0-1.5-0.3c-0.4-0.2-0.8-0.6-1.3-1
			c-1.2-1.2-1.5-3.1-1-5.9c0.1-0.3,0.3-0.9,0.5-1.6c0.2-0.7,0.4-1.2,0.4-1.5c0.1-0.3,0-0.5-0.1-0.8c-0.9,0.7-1.9,1.4-2.8,2.3
			c-3.6,3-5.4,5-5.4,6.1c0,0.2-0.1,0.3-0.3,0.3c-0.7,0-0.9-0.3-0.7-0.9c0.2-0.7,1.7-3.2,4.5-7.5c2.5-3.9,3.9-6.3,4.2-7.1
			c0.1-0.6,0.1-0.9-0.2-1c-0.2-0.1-0.8-0.1-1.6,0.2c-4.4,0.9-9.6,3.9-15.6,8.8c-0.6,0.5-1.4,1.2-2.5,2.3c-1.1,1.1-2.1,2.1-2.9,2.9
			s-1.3,1.4-1.3,1.5L157,89c-0.1,0.1-0.3,0.1-0.6-0.1c-0.3-0.2-0.4-0.3-0.4-0.4c0-0.7,1.9-3.3,5.7-7.8c1.4-1.6,2.5-2.9,3.5-3.8
			c1.2-1.2,2-1.6,2.4-1.4c0.1,0.1,0.2,0.3,0.2,0.5c0,0.6-0.8,1.6-2.3,3.1l-0.3,0.3c0.2-0.1,0.8-0.5,1.7-1.2
			c5.1-4.2,9.5-6.2,13.2-6.2c1,0,1.8,0.2,2.4,0.6c0.6,0.4,0.8,1,0.7,1.8c-0.1,0.9-1,2.5-2.6,4.7c-0.6,0.7-1.1,1.4-1.6,2.1l-0.2,0.2
			c0.2-0.1,0.4-0.2,0.5-0.3c1.2-0.8,2-1.2,2.4-1.2c0.3,0,0.6,0.1,0.8,0.2c0.2,0.1,0.3,0.3,0.3,0.5c0,0.2,0,0.4,0,0.6
			c0,0.2-0.1,0.5-0.3,0.9c-0.2,0.4-0.3,0.7-0.3,1C181.2,87.8,181.9,90.4,184.4,90.7z"/>
		<path class="st0" d="M210.6,90.5c-2.8,0.8-4.6,0.5-5.5-1c-0.7-1.4,0-3.5,2.1-6.2c0.7-0.9,1-1.4,0.9-1.4c-0.5,0.2-1.4,0.3-2.8,0.3
			l-2.4,0.2l-2.6,2.8c-2.4,2.8-3.6,4.4-3.5,4.9c0.1,0.3,0,0.5-0.3,0.5l-0.3-0.3c-0.2-0.1-0.4-0.2-0.5-0.3c-0.2-0.3-0.3-0.8-0.2-1.4
			l1.2-2.3c0.7-0.9,2.5-2.9,5.3-6c2.8-3.1,4.7-5.1,5.6-6c1.3-1,2.1-1.4,2.4-1c0.8,0.6-0.4,2.5-3.6,5.9l-2.8,2.6l1.9-0.2
			c2.2-0.1,3.8-0.6,4.7-1.4c2.4-2.3,4-3.1,4.7-2.4c0.6,0.5,0.3,1.2-0.9,2.1c-1.3,1-2.7,2.4-4.2,4.1c-1.6,1.7-2.6,2.9-3,3.7
			c-0.6,1.7-0.2,2.6,1.1,2.6c1.3,0,2.8-0.4,4.4-1.2c3-1.2,7.5-3.8,13.4-8l3.3-2.3c0.2-0.1,0.4-0.1,0.5,0c0.1,0.1,0.1,0.3,0,0.5
			c-0.3,0.5-3.1,2.5-8.3,6.1C217,88.2,213.5,90,210.6,90.5z"/>
		<path class="st0" d="M230.4,91.1c-0.8-0.5-1.2-1.3-1.2-2.6c0-1.3,0.2-2.5,0.7-3.6l0.3-0.9l-1,0.5c-0.6,0.5-1.1,0.8-1.6,1
			c-0.2,0.1-0.6,0.3-1.2,0.7c-0.6,0.3-1,0.6-1.4,0.9c-0.8,0.5-1.5,0.4-2.2-0.1c-0.6-0.5-0.8-1.3-0.4-2.3c0.5-1.2,1.7-2.5,3.7-4.2
			c2-1.6,3.8-2.7,5.5-3.1c1.4-0.3,2.4-0.1,2.9,0.9c0.2,0.3,0.4,0.5,0.5,0.3c0.6-0.2,1-0.1,1.2,0.3l-0.2,0.2
			c-0.1,0.2-0.2,0.4-0.3,0.6c-0.1,0.2-0.2,0.4-0.3,0.6c-2.3,2.3-3.8,4.4-4.5,6.2c-0.6,1.9-0.5,3.1,0.2,3.6c1,0.7,3.4,0.3,7.1-1.2
			c3.8-1.5,8.6-4.4,14.2-8.7c2-1.5,2.9-1.9,2.8-1.2c-0.1,0.5-1.7,1.8-4.8,4c-3.1,2.2-5.8,3.9-8.1,5.2c-1.5,0.8-3,1.5-4.5,2.1
			c-1.5,0.6-2.9,1-4.2,1.1C232.3,91.7,231.2,91.5,230.4,91.1z M225.7,84.3c-0.6,0.7-0.8,1-0.7,1c0.1,0,1.1-0.5,2.9-1.6
			c3.9-2.2,5.9-3.9,5.9-5c-0.2-0.7-1.2-0.5-2.8,0.7C229.1,80.7,227.3,82.3,225.7,84.3z"/>
		<path class="st0" d="M264,94.5c-3.7,0.6-5.7-0.2-6.1-2.3c-0.2-1.2,0.2-2.8,1.4-4.9c1.4-2.3,2.5-3.9,3.3-4.7l2.9-3.1l1-1.2h-0.3
			c-0.7,0.3-1.1,0.6-1.2,0.7c-6.1,5.1-10.3,7.3-12.5,6.8c-1.6-0.6-1.9-1.8-0.7-3.8c0.7-0.9,1.2-1.6,1.6-1.9l0.5-0.5
			c1.2-1.2,1.8-1.4,2.1-0.7c0.1,0.2-0.4,1.1-1.6,2.6c-1.5,1.7-2.1,2.8-1.7,3.1c0.2,0.2,1.3-0.2,3.3-1.2c2.3-1,4.5-2.4,6.6-4.2l1.4-1
			l-0.7-0.9c-1.7-1.6-1.2-3.9,1.7-6.8c1.4-1.4,2.7-2.3,3.9-2.6c1.2-0.3,2-0.1,2.3,0.9c0.3,0.8,0.1,2-0.7,3.5
			c-0.3,0.7-1.3,2.1-2.8,4.2l-0.5,0.5l0.5-0.2c0.2-0.2,0.7-0.3,1.3-0.3c0.6,0,1.1,0.1,1.3,0.3c0.2,0.3-0.6,1.4-2.6,3.3l-3.6,3.8
			c-3.6,3.6-5.3,6.2-5.2,7.8c0.6,1.5,2.5,2,5.7,1.6c3.2-0.5,6.5-1.5,9.7-3.1c5.1-2.4,8.8-4.7,11.1-6.9c1.3-1,1.9-2.3,1.9-3.8
			c0-0.1,0.1-0.2,0.2-0.2c0.6,0,0.9,0.4,0.9,1.2c0,1.7-2.5,4.2-7.5,7.5c-2.1,1.4-4.9,2.8-8.4,4.2C269.1,93.5,266.2,94.3,264,94.5z
			 M264,77.2c0.6,0.2,1.4-0.3,2.6-1.7c2.5-2.8,3.8-4.8,3.8-6.1c0-0.2-0.4-0.2-1.2,0c-1.7,0.9-3.2,2.3-4.5,4.2
			C263.5,75.4,263.2,76.6,264,77.2z"/>
		<path class="st0" d="M312.1,88.8c-1.3-1-1.7-2.4-1.2-4c0.6-1.6,1.8-3.4,3.6-5.2c1.8-1.8,3.6-3.2,5.5-4c1-0.5,2-0.6,2.8-0.4
			c0.8,0.2,1.2,0.5,1.2,1.1c0,0.9-0.7,2.1-2.1,3.6c-1.7,1.5-2.9,2.3-3.5,2.3c-0.8,0-0.7-0.3,0.3-1c1.3-0.8,2.4-1.8,3.3-2.9
			c0.9-1.1,1.2-1.8,0.9-2.2c-0.3-0.3-1.4,0.1-3.3,1.4c-2.4,1.5-4.4,3.3-5.8,5.5c-1.4,2.1-1.9,3.7-1.3,4.8c0.5,1,2.2,1.4,5.2,1
			c3-0.3,6.2-1.3,9.7-2.9c3.1-1.5,6.2-3.4,9.2-5.5c0.3-0.2,0.8-0.5,1.4-0.9l0.9-0.7c0.3,0,0.6,0.2,0.7,0.5l-0.9,0.7
			c-1.7,1.4-4.2,3-7.3,4.9l-3.8,1.9C320.2,90.3,315.1,91,312.1,88.8z"/>
		<path class="st0" d="M339.3,95.9c-2.2,1.6-4.1,2.4-5.8,2.3c-1.7-0.1-2.6-1-2.7-2.9c0-0.6-0.2-1.1-0.7-1.6
			c-0.3-0.2-0.5-0.6-0.5-1.2c0.1-2,3.4-7.3,9.9-16l3.6-4.9c0.7-0.9,1.8-2.3,3.5-4.2c4-5.1,8.7-9.9,13.9-14.6c3.5-3,6.5-5.2,9.2-6.6
			c0.6-0.3,1.2-0.3,1.9,0.2c0.5,0.3,0.5,0.8,0,1.4c-0.5,0.6-1.9,2.1-4.3,4.7c-6.6,6.4-11.6,10.9-15.1,13.5c-2.9,2.2-5.1,4.2-6.6,6.1
			l-5.2,6.6c-1.7,2.2-2.6,3.6-2.6,4.2l0.2,0.9l1.2-0.9c2.7-2.1,5-3,6.9-2.8c2.2,0.2,3.1,1.3,2.8,3.3c-0.2,1.4-0.9,2.9-2.1,4.7
			l-0.7,1c3.5,0,9.7-3.5,18.7-10.4c0.5-0.3,0.8-0.3,1,0.2c-1.9,1.9-5.3,4.3-10.2,7.5c-1.4,0.8-3.1,1.6-5,2.4
			c-1.6,0.7-2.9,1.1-3.8,1.2l-1.6,0.2l-1.2,1.4C341.9,93.8,340.3,95.2,339.3,95.9z M332.5,96.9c0.7,0.9,2.5,0.2,5.4-2.1
			c2.7-2.2,4.2-3.8,4.7-4.7c-0.3,0-1.2-0.4-2.4-1.3c-1.3-0.9-2.1-1.8-2.6-2.7l-1.4,1.2c-1.4,1.3-2.4,2.6-3.1,4
			C331.7,94.1,331.5,95.9,332.5,96.9z M335.5,85.8c0.1,0.1,0.4-0.1,0.9-0.5c0.5-0.5,0.7-0.8,0.7-0.9l-0.2-0.5
			c-0.1-0.1-0.2-0.1-0.3,0c-0.1,0.1-0.3,0.4-0.5,0.9L335.5,85.8z M341.6,88.8c0.9,0.5,1.5,0.7,1.6,0.6c0.2-0.1,0.5-0.4,1-1.1
			c2.2-2.7,3.2-4.7,2.9-6.2c-0.2-0.3-0.5-0.5-0.9-0.5c-0.5,0-1.7,0.5-3.8,1.4c-2.7,1.4-4,2.3-4,2.8
			C338.8,87.1,339.8,88.1,341.6,88.8z M352.3,64.7l1.6-1.2c3.8-2.8,8.3-6.9,13.4-12.5l1.4-1.6c-0.3,0-2.4,1.7-6.2,5.2
			c-2.8,2.4-5.5,5.1-8.2,8L352.3,64.7z"/>
		<path class="st0" d="M368.1,92.4c-0.5-0.5-0.6-1-0.5-1.6c0.2-2.5,2.8-6.3,7.8-11.3l1-1.2h-0.3c-0.7,0.3-1.1,0.6-1.2,0.7
			c-6.1,5.1-10.3,7.3-12.5,6.8c-1.6-0.6-1.9-1.8-0.7-3.8c0.7-0.9,1.2-1.6,1.6-1.9l0.5-0.5c1.2-1.2,1.8-1.4,2.1-0.7
			c0.1,0.2-0.4,1.1-1.6,2.6c-1.5,1.7-2.1,2.8-1.7,3.1c0.2,0.2,1.3-0.2,3.3-1.2c2.3-1,4.5-2.4,6.6-4.2l1.4-1l-0.7-0.9
			c-1.7-1.6-1.2-3.9,1.7-6.8c3.4-3.1,5.4-3.7,6.2-1.7c0.3,0.8,0.1,2-0.7,3.5c-0.3,0.7-1.3,2.1-2.8,4.2l-0.5,0.5l0.5-0.2
			c0.2-0.2,0.7-0.3,1.3-0.3c0.6,0,1.1,0.1,1.3,0.3c0.2,0.3-0.6,1.4-2.6,3.3c-4.5,4.5-7.4,8-8.7,10.6l-0.5,1l0.7,0.2
			c0.3,0,1.4-0.3,3.1-0.9c0.8-0.3,2.3-1.2,4.5-2.6c3.1-2,7.6-5,13.4-9.2c0.5-0.3,1-0.5,1.7-0.5l0.2,0.2l-0.7,0.7l-12.8,9
			c-2.1,1.4-3.7,2.4-4.9,2.9C370.7,93.1,368.9,93.4,368.1,92.4z M373.8,77.2c0.6,0.2,1.4-0.3,2.6-1.7c2.5-2.8,3.8-4.8,3.8-6.1
			c0-0.2-0.4-0.2-1.2,0c-1.7,0.9-3.2,2.3-4.5,4.2C373.2,75.4,373,76.6,373.8,77.2z"/>
		<path class="st0" d="M353.3,138.9c-1.7,0.3-3.2,0.1-4.3-0.7c-1-0.9-1.7-2.2-2.1-3.8c-0.3-2.5,0.1-5.3,1.4-8.2
			c1.9-4.2,4.9-8.3,9-12.4c4.2-4.1,8.9-7.5,14.2-10.3c3.7-1.8,7.3-3.4,10.9-4.5c5.4-2,8.4-3.2,9-3.8c0.2-0.2,0.4-0.9,0.6-2.1
			c0.2-1.2,0.2-2,0.1-2.6c-0.6-1.4-1.8-1.9-3.6-1.6c-1,0-1.9,0.3-2.6,1c-0.1,0.1-0.3,0.1-0.4,0.1c-0.2-0.1-0.3-0.1-0.3-0.3
			c-0.1-0.1,0-0.3,0.3-0.6c0.3-0.3,0.7-0.5,1.3-0.8c0.8-0.5,1.6-0.9,2.3-1.4c1-0.8,3-2.9,5.8-6.2c2.8-3.4,4.2-5.2,4.2-5.5
			c-0.2,0-0.5,0-0.8,0c-0.3,0-1.2,0.4-2.6,1.3c-1.4,0.9-3.4,2.2-5.8,3.9c-0.5,0.2-0.7,0.2-0.8-0.1c-0.1-0.3,0.1-0.6,0.6-1
			c2-1.5,3.4-2.5,4.2-2.9c4-2.5,6.1-2.8,6.1-0.7c0,0.3-0.5,1.3-1.6,2.9c-2.3,3.1-5,6-8,8.5l-0.7,0.7l0.7,0.2
			c2.3,0.8,3.4,2.6,3.1,5.4v1l3.5-1.7c2-1.2,5.5-3.4,10.6-6.6l10.2-7.3l0.5-0.2c0.3,0,0.5,0.2,0.5,0.5l-0.2,0.2l-2.9,2.3l-1.7,1.2
			l-9,6.1c-3,2.1-6.9,4.4-11.8,6.9l-0.5,1.7c-1.2,2.9-3.6,6.8-7.3,11.8c-5.9,8.2-11.8,15.1-17.8,20.5
			C361.7,135.5,356.9,138.4,353.3,138.9z M352.5,138c2.1-0.3,4.9-1.7,8.3-4.2c3-2.3,6-5.1,8.8-8.3c1.2-1.3,3.8-4.4,8-9.5l3.5-4.5
			l4.3-5.9c3.8-5.5,5.7-8.5,5.7-8.8l-8.2,2.9c-3.9,1.3-8,3.1-12.1,5.4c-6.4,3.6-11.8,8.1-16.5,13.5c-2.4,2.9-4.2,5.9-5.5,8.9
			c-1.2,3.1-1.6,5.6-1.1,7.7C348.5,137.6,350,138.5,352.5,138z"/>
		<path class="st0" d="M412.6,88.6c-1.8-1.6,0.3-5.5,6.6-11.8c2.1-2.1,3.4-2.9,4-2.6c0.5,0.2,0.4,0.6-0.2,1.2
			c-0.2,0.2-0.4,0.4-0.6,0.6c-0.2,0.2-0.5,0.4-0.9,0.8c-0.4,0.3-0.8,0.8-1.1,1.2l-3.1,3.5c2,0.3,2.9,1,2.9,2.1c0,1.2-1.1,2.5-3.2,4
			C414.9,89.1,413.5,89.4,412.6,88.6z M413.3,88.1c0.1,0.2,0.5,0.2,1.1,0c0.6-0.2,1.2-0.6,1.8-1c1.7-1.4,2.7-2.4,2.9-2.9
			c0.2-0.6,0-1-0.7-1.4s-1.3-0.4-1.7-0.2c-0.6,0.3-1.3,1.2-2.3,2.5C413.6,86.4,413.2,87.4,413.3,88.1z"/>
	</g>
</g>
</svg>
