<?xml version="1.0" encoding="utf-8"?>
<!-- Generator: Adobe Illustrator 27.0.0, SVG Export Plug-In . SVG Version: 6.00 Build 0)  -->
<svg version="1.1" id="Слой_1" xmlns="http://www.w3.org/2000/svg" xmlns:xlink="http://www.w3.org/1999/xlink" x="0px" y="0px"
	 viewBox="0 0 186.2 102.1" style="enable-background:new 0 0 186.2 102.1;" xml:space="preserve">
<style type="text/css">
	.st0{fill:#514D4B;}
</style>
<g>
	<g>
		<path class="st0" d="M6,66.6c-0.4,0-0.7-0.1-1-0.2c-0.4-0.6-0.5-1-0.1-1.1c0.1-0.1,0.2,0,0.5,0.1l0.2,0.4l1-0.5
			c3.3-1.9,6.5-4,9.4-6.5c3.4-3.2,6.5-6.8,9.1-10.7c2.2-2.8,4.8-6.7,8-11.7c4.4-6.6,7.9-11.6,10.7-15c2.6-3.2,5.4-6.2,8.5-8.9
			c1.8-1.6,3.7-3,5.7-4.4l0.4-0.2l-0.6-0.4c-4.3-2.7-9-4.6-13.9-5.7c-6.3-1.2-12.8-0.6-18.7,1.6C20.5,5,16.1,7.1,11.8,9.6
			c-3.2,1.8-6.1,4-8.7,6.6c-1.8,2-2.8,3.3-2.8,3.9c0,0.2-0.1,0.2-0.2,0s-0.2-0.5,0-0.9c1.3-3.3,5.2-7,11.9-11
			c3.6-2.2,7.3-4,11.2-5.6c3.6-1.4,7.4-2.3,11.2-2.5c4.2-0.3,8.3,0.2,12.3,1.4c3.8,1.3,7.5,2.9,10.9,4.9l1.6,1l1.5-0.8
			c3.3-1.5,5.5-1.7,6.4-0.6c0.3,0.6,0.4,1,0.1,1.1c-0.2-0.2-0.2-0.3-0.2-0.4c0-1.2-1.7-0.9-5,0.6l-1.4,0.7c0,0.2,1.7,1.3,5.2,3.4
			c3.5,1.9,7.1,3.5,10.9,4.6c8.5,2.7,15.5,2.7,21.1,0c1.6-0.8,3.1-1.8,4.4-3c0.3-0.2,0.6-0.4,0.9-0.5c0.2,0,0.3,0.1,0.5,0.4
			c0.2,0.2,0.2,0.4,0.1,0.6c-0.6,0.9-1.5,1.7-2.4,2.3c-1.1,0.9-2.4,1.7-3.8,2.3l-2.6,0.8c-1.7,0.3-3.4,0.4-5.2,0.4
			c-1.6,0-3.2,0-4.8-0.2c-8.1-1.3-15.8-4.3-22.6-8.7l-2.8-1.6c-0.4,0-2.2,1.3-5.3,4c-2.5,2.3-4.9,4.8-7.2,7.3
			c-3.7,4.5-7.1,9.3-10.3,14.2c-4.7,7.2-7.7,11.7-9,13.6c-2.8,3.9-5.9,7.5-9.3,10.8c-2.2,1.8-4.5,3.4-6.9,4.9
			C8.8,65.4,6.9,66.4,6,66.6z M25.7,69.2c-0.1-0.2,0.2-0.5,0.8-1c2.8-2.4,5.4-5,7.8-7.9c3.8-4.4,8.8-11.8,15-22.2
			c2.2-3.7,4.6-7.3,7.2-10.7c4.1-5.1,8.1-8.2,12.1-9.4c0.2-0.1,0.5-0.2,0.7-0.1c0.3,0,0.6,0,0.8-0.1c0.4,0,0.8,0.1,1.1,0.4
			c0.2,0.2,0.4,0.4,0.4,0.6s-0.1,0.1-0.4-0.1s-0.5-0.2-1-0.1c-1.6,0.4-3.1,1.2-4.4,2.2c-2.7,1.9-5.1,4.2-7.1,6.7
			c-2.8,3.7-5.4,7.6-7.7,11.7c-4.5,7.3-8.4,13.3-11.8,18c-3.3,4.3-7.2,8.1-11.5,11.3C26.6,69.3,26,69.5,25.7,69.2L25.7,69.2z
			 M60.6,59.8c-0.3-0.1-0.7-0.3-0.9-0.6c-0.2-0.5-0.3-1-0.2-1.5c0.2-1.7,1.6-4.1,4.4-7.2l1-1.1L64.1,50c-1.3,1-3.3,2.3-6,4
			c-2.6,1.4-4.2,1.8-4.8,1.1c-0.7-0.8-0.5-2,0.5-3.4c1.8-2.3,2.8-2.9,3-1.7c0.1,0.3-0.2,0.9-1,1.6c-0.4,0.4-0.7,0.8-1,1.2
			c-0.3,0.4-0.5,0.8-0.8,1.2c-0.2,0.3-0.2,0.5-0.1,0.6c0.3,0.3,1.7-0.2,4.2-1.6c3.4-1.8,6.5-4.1,9.3-6.7c0.5-0.4,1-0.8,1.5-1.1
			c1-0.1,1.5,0.1,1.5,0.6c0,0.3-1.1,1.5-3.2,3.4c-2.2,2.1-4.2,4.4-5.9,6.9c-1.2,1.9-1.4,3-0.5,3.1c1.3,0.1,2.5-0.2,3.6-0.9
			c1.5-0.7,4-2.3,7.6-4.7c0.2-0.2,0.7-0.4,1.2-0.8s1-0.7,1.4-1s0.8-0.6,1.1-0.8l1.6-1.1c0.1-0.1,0.3-0.1,0.4,0.1
			c0.1,0.1,0.1,0.3-0.1,0.4l-0.6,0.5l-1.9,1.4c-7,4.7-11.3,7.3-13,7.6C61.3,60,60.8,60,60.6,59.8z"/>
		<path class="st0" d="M78.7,58.7c-0.6-0.4-1-1.1-0.9-1.9c0-0.9,0.2-1.8,0.5-2.6l0.3-0.6L77.8,54c-0.3,0.3-0.7,0.5-1.1,0.7
			c-0.2,0.1-0.5,0.2-0.9,0.5s-0.8,0.5-1,0.6c-0.5,0.3-1.1,0.3-1.6-0.1c-0.5-0.4-0.6-1.1-0.3-1.7c0.6-1.2,1.6-2.2,2.7-3
			c1.2-1,2.5-1.8,4-2.2c0.8-0.3,1.7-0.1,2.1,0.6c0.2,0.2,0.3,0.3,0.4,0.2c0.3-0.2,0.7-0.1,0.8,0.2c0,0,0,0,0,0l-0.1,0.1
			c-0.1,0.2-0.2,0.3-0.2,0.4c-0.1,0.1-0.2,0.3-0.2,0.4c-1.4,1.3-2.5,2.8-3.3,4.5c-0.4,1.3-0.4,2.2,0.1,2.6c0.8,0.5,2.5,0.2,5.2-0.9
			c3.7-1.6,7.1-3.7,10.3-6.2c1.4-1.1,2.1-1.4,2-0.9c-0.1,0.3-1.2,1.3-3.5,2.9c-1.9,1.4-3.8,2.6-5.8,3.7c-1.1,0.6-2.1,1.1-3.3,1.5
			c-1,0.4-2,0.6-3.1,0.8C80.2,59.1,79.4,59,78.7,58.7z M75.3,53.8c-0.4,0.5-0.6,0.8-0.5,0.8c0.7-0.3,1.5-0.7,2.1-1.1
			c2.9-1.6,4.3-2.8,4.3-3.6c-0.2-0.5-0.8-0.3-2,0.5C77.7,51.3,76.4,52.5,75.3,53.8z"/>
		<path class="st0" d="M101.6,58.3c-2,0.6-3.3,0.3-4-0.8c-0.5-1,0-2.5,1.5-4.5c0.5-0.7,0.7-1,0.6-1c-0.6,0.2-1.3,0.3-2,0.2L96,52.5
			l-1.9,2c-1.8,2-2.6,3.2-2.5,3.5s0,0.4-0.2,0.4L91,58.1c-0.1-0.1-0.3-0.1-0.4-0.2c-0.2-0.3-0.2-0.7-0.1-1l0.9-1.6
			c0.5-0.7,1.8-2.1,3.8-4.3s3.4-3.6,4.1-4.3c0.9-0.8,1.5-1,1.8-0.8c0.6,0.4-0.3,1.8-2.6,4.2l-2,1.9l1.4-0.1c1.2,0,2.4-0.3,3.4-1
			c1.8-1.7,2.9-2.2,3.4-1.8c0.4,0.3,0.2,0.8-0.6,1.5c-1.1,0.9-2.1,1.9-3.1,2.9c-0.8,0.8-1.6,1.7-2.2,2.7c-0.4,1.2-0.2,1.9,0.8,1.9
			c1.1,0,2.2-0.3,3.2-0.9c3.4-1.6,6.7-3.5,9.7-5.7l2.4-1.6c0.2-0.1,0.3-0.1,0.4,0s0.1,0.2,0,0.4c-1.9,1.6-3.9,3-6,4.4
			C106.9,56.3,104.3,57.6,101.6,58.3L101.6,58.3z M94.3,102.1c-2.4,0-2.5-2.2-0.5-6.7l1-1.9c4.4-8.2,10.8-16.2,19.4-23.8
			c3.4-3,8.6-6.4,15.5-10.2c1.1-0.6,2-1.4,2.6-2.5l1.1-1.8l-0.5,0.4l-0.2,0.2c-0.8,0.8-1.8,1.4-2.9,1.7c-0.9,0.2-1.6,0.1-1.9-0.5
			c-0.7-1.2,0.2-3.1,2.7-5.7s4.6-3.8,6.4-3.8c0.7,0,1.1,0.1,1.1,0.4c0.2,0.2,0.4,0.2,0.5,0.1l1.8-2.2c0.8-1.2,1.8-2.2,2.8-3.2
			c0.8-0.8,1.3-1.1,1.5-1.1l0.2,0.2c0,0.2-0.3,0.7-1,1.4c-1.9,2.3-5.2,6.8-9.8,13.5l-0.9,1.3c4.7-2,9.3-4.5,13.6-7.2l1.3-0.9
			c0.2-0.2,0.3-0.1,0.5,0.2c-0.2,0.2-0.4,0.5-0.6,0.6l-0.5,0.4c-1.9,1.4-6.9,4.1-14.8,8l-1.5,2c-6.4,9.2-13.5,18.4-21.4,27.8
			C102.2,97.7,97.1,102.1,94.3,102.1L94.3,102.1z M93.9,101.3c1.9,0.2,5.3-2.4,10.2-7.7c8.6-9.7,16.6-19.9,23.9-30.5l2.2-3.1
			c-2.8,1.4-5.4,2.9-8,4.6c-3.6,2.4-6.9,5.1-9.9,8.1c-3.2,3.1-6.2,6.4-8.9,10c-6,7.5-9.3,13.1-9.9,17
			C93.2,100.8,93.3,101.3,93.9,101.3z M129.2,57c0.9,0,2.2-0.8,3.8-2.3c1.4-1.3,2.7-2.7,3.8-4.3c0.4-0.5,0.7-1,0.9-1.6
			c0-0.2-0.1-0.4-0.4-0.4c-1.5,0-3.7,1.7-6.5,5C128.8,55.8,128.2,57,129.2,57z"/>
		<path class="st0" d="M153.1,58.3c-2,0.6-3.3,0.3-4-0.8c-0.5-1,0-2.5,1.5-4.5c0.5-0.7,0.7-1,0.6-1c-0.6,0.2-1.3,0.3-2,0.2l-1.8,0.1
			l-1.9,2c-1.8,2-2.6,3.2-2.5,3.5s0,0.4-0.2,0.4l-0.2-0.2c-0.1-0.1-0.3-0.1-0.4-0.2c-0.2-0.3-0.2-0.7-0.1-1l0.9-1.6
			c0.5-0.7,1.8-2.1,3.8-4.3s3.4-3.6,4.1-4.3c0.9-0.8,1.5-1,1.8-0.8c0.6,0.4-0.3,1.8-2.6,4.2l-2,1.9l1.4-0.1c1.2,0,2.4-0.3,3.4-1
			c1.8-1.7,2.9-2.2,3.4-1.8c0.4,0.3,0.2,0.8-0.6,1.5c-1.1,0.9-2.1,1.9-3.1,2.9c-0.8,0.8-1.6,1.7-2.2,2.7c-0.4,1.2-0.1,1.9,0.8,1.9
			c1.1,0,2.2-0.3,3.2-0.9c3.4-1.6,6.7-3.5,9.7-5.7l2.4-1.6c0.2-0.1,0.3-0.1,0.4,0s0.1,0.2,0,0.4c-1.9,1.6-3.9,3-6,4.4
			C158.5,56.4,155.9,57.6,153.1,58.3z"/>
		<path class="st0" d="M168.8,59.7c-0.3-0.3-0.5-0.7-0.4-1.1c0.2-1.8,2-4.5,5.6-8.1l0.8-0.9h-0.2c-0.3,0.1-0.6,0.3-0.9,0.5
			c-4.4,3.7-7.5,5.3-9.1,4.9c-1.2-0.4-1.4-1.3-0.5-2.7c0.4-0.5,0.7-0.9,1.1-1.4l0.4-0.4c0.8-0.8,1.3-1,1.5-0.5
			c0.1,0.2-0.3,0.8-1.1,1.9c-1.1,1.2-1.5,2-1.3,2.2s1-0.1,2.4-0.9c1.7-0.8,3.3-1.8,4.8-3l1-0.8l-0.5-0.6c-1.3-1.2-0.8-2.8,1.3-4.9
			c2.4-2.2,3.9-2.7,4.5-1.2c0.2,0.9,0,1.8-0.5,2.5c-0.6,1-1.3,2-2,3l-0.4,0.4l0.4-0.1c0.3-0.2,0.6-0.3,0.9-0.2c0.3,0,0.7,0,0.9,0.2
			c0.2,0.2-0.5,1-1.9,2.4c-3.3,3.2-5.4,5.8-6.3,7.6l-0.4,0.8l0.5,0.1c0.8-0.1,1.5-0.3,2.3-0.6c1.1-0.6,2.2-1.2,3.3-1.9
			c2.3-1.4,5.5-3.6,9.7-6.6c0.4-0.3,0.8-0.4,1.3-0.4l0.1,0.1l-0.5,0.5l-9.3,6.5c-1.1,0.8-2.3,1.5-3.5,2.1
			C170.8,60.2,169.4,60.4,168.8,59.7z M173,48.7c0.4,0.2,1-0.2,1.9-1.2c1.8-2,2.8-3.5,2.8-4.4c0-0.2-0.3-0.2-0.9,0
			c-1.3,0.7-2.4,1.8-3.3,3C172.6,47.4,172.4,48.3,173,48.7L173,48.7z"/>
	</g>
</g>
</svg>
